<svg xmlns="http://www.w3.org/2000/svg" xmlns:xlink="http://www.w3.org/1999/xlink" id="Layer_1" data-name="Layer 1" viewBox="0 0 1076.06 695.44"><defs><style>.cls-1{fill:none;}.cls-2{fill:url(#linear-gradient);}.cls-3{fill:url(#linear-gradient-2);}.cls-4{fill:url(#linear-gradient-3);}.cls-12,.cls-14,.cls-5,.cls-6,.cls-7,.cls-78,.cls-80{fill:#fff;}.cls-5{opacity:0.65;}.cls-6{opacity:0.5;}.cls-7{opacity:0.69;}.cls-8{fill:url(#linear-gradient-4);}.cls-9{fill:url(#linear-gradient-5);}.cls-10{fill:url(#linear-gradient-6);}.cls-11{fill:url(#linear-gradient-7);}.cls-13{fill:url(#linear-gradient-8);}.cls-14{opacity:0.87;}.cls-15{fill:url(#linear-gradient-9);}.cls-16{fill:url(#linear-gradient-10);}.cls-17{fill:url(#linear-gradient-11);}.cls-18{fill:url(#linear-gradient-12);}.cls-19{fill:url(#linear-gradient-13);}.cls-20{fill:url(#linear-gradient-14);}.cls-21{fill:url(#linear-gradient-15);}.cls-22{fill:url(#linear-gradient-16);}.cls-23{fill:url(#linear-gradient-17);}.cls-24{fill:url(#linear-gradient-18);}.cls-25{fill:url(#linear-gradient-19);}.cls-26{fill:url(#linear-gradient-20);}.cls-27{fill:url(#linear-gradient-21);}.cls-28{fill:url(#linear-gradient-22);}.cls-29{fill:url(#linear-gradient-23);}.cls-30{fill:url(#linear-gradient-24);}.cls-31{fill:url(#linear-gradient-25);}.cls-32{fill:url(#linear-gradient-26);}.cls-33{fill:url(#linear-gradient-27);}.cls-34{fill:url(#linear-gradient-28);}.cls-35{clip-path:url(#clip-path);}.cls-36{fill:url(#linear-gradient-29);}.cls-37{fill:url(#linear-gradient-30);}.cls-38{fill:url(#linear-gradient-31);}.cls-39{fill:url(#linear-gradient-32);}.cls-40{fill:url(#linear-gradient-33);}.cls-41{fill:url(#linear-gradient-34);}.cls-42{fill:url(#linear-gradient-35);}.cls-43{fill:url(#linear-gradient-36);}.cls-44{fill:url(#linear-gradient-37);}.cls-45{fill:url(#linear-gradient-38);}.cls-46{fill:url(#linear-gradient-39);}.cls-47{fill:url(#linear-gradient-40);}.cls-48{fill:url(#linear-gradient-41);}.cls-49{fill:url(#linear-gradient-42);}.cls-50{fill:url(#linear-gradient-43);}.cls-51{fill:url(#linear-gradient-44);}.cls-52{fill:url(#linear-gradient-45);}.cls-53{fill:url(#linear-gradient-46);}.cls-54{fill:url(#linear-gradient-47);}.cls-55{fill:url(#linear-gradient-48);}.cls-56{fill:url(#linear-gradient-49);}.cls-57{fill:url(#linear-gradient-50);}.cls-58{fill:url(#linear-gradient-51);}.cls-59{fill:url(#linear-gradient-52);}.cls-60{fill:url(#linear-gradient-53);}.cls-61{fill:url(#linear-gradient-54);}.cls-62{fill:url(#linear-gradient-55);}.cls-63{fill:url(#linear-gradient-56);}.cls-64{fill:url(#linear-gradient-57);}.cls-65{fill:url(#linear-gradient-58);}.cls-66{fill:url(#linear-gradient-59);}.cls-67{fill:url(#linear-gradient-60);}.cls-68{fill:url(#linear-gradient-61);}.cls-69{fill:url(#linear-gradient-62);}.cls-70{fill:url(#linear-gradient-63);}.cls-71{fill:url(#linear-gradient-64);}.cls-72{fill:url(#linear-gradient-65);}.cls-73{fill:#e78456;}.cls-74{fill:#e992ec;}.cls-75{fill:url(#linear-gradient-66);}.cls-76{fill:url(#linear-gradient-67);}.cls-77{fill:url(#linear-gradient-68);}.cls-78{opacity:0.6;}.cls-79{fill:url(#linear-gradient-69);}.cls-80{opacity:0.78;}.cls-81{fill:url(#linear-gradient-70);}.cls-82{fill:url(#linear-gradient-71);}.cls-83{fill:url(#linear-gradient-72);}.cls-84{fill:url(#linear-gradient-73);}.cls-85{fill:url(#linear-gradient-74);}.cls-86{fill:url(#linear-gradient-75);}.cls-87{fill:url(#linear-gradient-76);}.cls-88{fill:url(#linear-gradient-77);}.cls-89{fill:url(#linear-gradient-78);}.cls-90{fill:url(#linear-gradient-79);}.cls-91{fill:url(#linear-gradient-80);}.cls-92{fill:url(#linear-gradient-81);}.cls-93{fill:url(#linear-gradient-82);}.cls-94{fill:url(#linear-gradient-83);}.cls-95{fill:url(#linear-gradient-84);}.cls-96{fill:url(#linear-gradient-85);}.cls-97{fill:url(#linear-gradient-86);}.cls-98{fill:url(#linear-gradient-87);}.cls-99{fill:url(#linear-gradient-88);}.cls-100{fill:url(#linear-gradient-89);}.cls-101{fill:url(#linear-gradient-90);}.cls-102{fill:url(#linear-gradient-91);}.cls-103{fill:url(#linear-gradient-92);}.cls-104{fill:url(#linear-gradient-93);}.cls-105{fill:url(#linear-gradient-94);}.cls-106{fill:url(#linear-gradient-95);}.cls-107{fill:url(#linear-gradient-96);}.cls-108{fill:url(#linear-gradient-97);}.cls-109{fill:url(#linear-gradient-98);}.cls-110{fill:#f2bd4a;}.cls-111{fill:url(#linear-gradient-99);}.cls-112{fill:url(#linear-gradient-100);}.cls-113{fill:url(#linear-gradient-101);}.cls-114{fill:url(#linear-gradient-102);}.cls-115{fill:url(#linear-gradient-103);}.cls-116{fill:url(#linear-gradient-104);}.cls-117{fill:url(#linear-gradient-105);}.cls-118{fill:url(#linear-gradient-106);}.cls-119{fill:url(#linear-gradient-107);}.cls-120{fill:url(#linear-gradient-108);}</style><linearGradient id="linear-gradient" x1="11.62" y1="466.17" x2="1057.97" y2="466.17" gradientUnits="userSpaceOnUse"><stop offset="0" stop-color="#a737d5"></stop><stop offset="1" stop-color="#ef497a"></stop></linearGradient><linearGradient id="linear-gradient-2" x1="384.07" y1="377.3" x2="820.71" y2="377.3" gradientUnits="userSpaceOnUse"><stop offset="0" stop-color="#2b3582"></stop><stop offset="1" stop-color="#150e42"></stop></linearGradient><linearGradient id="linear-gradient-3" x1="712.52" y1="211.71" x2="-167.68" y2="1337.7" xlink:href="#linear-gradient"></linearGradient><linearGradient id="linear-gradient-4" x1="555.98" y1="536.83" x2="632.73" y2="536.83" gradientUnits="userSpaceOnUse"><stop offset="0" stop-color="#cb236d"></stop><stop offset="1" stop-color="#4c246d"></stop></linearGradient><linearGradient id="linear-gradient-5" x1="730.11" y1="488.97" x2="685.37" y2="532.97" xlink:href="#linear-gradient-4"></linearGradient><linearGradient id="linear-gradient-6" x1="-7110.71" y1="488.97" x2="-7155.46" y2="532.97" gradientTransform="matrix(-1, 0, 0, 1, -6647.42, 0)" xlink:href="#linear-gradient-4"></linearGradient><linearGradient id="linear-gradient-7" x1="430.76" y1="466.04" x2="631.65" y2="466.04" xlink:href="#linear-gradient-4"></linearGradient><linearGradient id="linear-gradient-8" x1="1154.02" y1="-209.97" x2="758.85" y2="111.62" gradientTransform="matrix(1, 0.09, -0.09, 1, -57.52, 271.67)" xlink:href="#linear-gradient"></linearGradient><linearGradient id="linear-gradient-9" x1="1204.72" y1="-147.67" x2="809.56" y2="173.92" gradientTransform="matrix(1, 0.09, -0.09, 1, -57.52, 271.67)" xlink:href="#linear-gradient"></linearGradient><linearGradient id="linear-gradient-10" x1="1211.47" y1="-139.38" x2="816.3" y2="182.21" gradientTransform="matrix(1, 0.09, -0.09, 1, -57.52, 271.67)" xlink:href="#linear-gradient"></linearGradient><linearGradient id="linear-gradient-11" x1="1226.6" y1="-120.79" x2="831.43" y2="200.8" gradientTransform="matrix(1, 0.09, -0.09, 1, -57.52, 271.67)" xlink:href="#linear-gradient"></linearGradient><linearGradient id="linear-gradient-12" x1="1091.14" y1="-37.51" x2="626.51" y2="340.61" gradientTransform="translate(-12.89 64.76) rotate(1.17)" xlink:href="#linear-gradient-4"></linearGradient><linearGradient id="linear-gradient-13" x1="1150.76" y1="35.73" x2="686.12" y2="413.86" gradientTransform="translate(-12.89 64.76) rotate(1.17)" xlink:href="#linear-gradient-4"></linearGradient><linearGradient id="linear-gradient-14" x1="1158.69" y1="45.48" x2="694.05" y2="423.61" gradientTransform="translate(1146.13 -634.83) rotate(90)" xlink:href="#linear-gradient-4"></linearGradient><linearGradient id="linear-gradient-15" x1="1176.48" y1="67.34" x2="711.84" y2="445.47" gradientTransform="translate(-12.89 64.76) rotate(1.17)" xlink:href="#linear-gradient-4"></linearGradient><linearGradient id="linear-gradient-16" x1="571.94" y1="156.99" x2="1002.08" y2="156.99" gradientUnits="userSpaceOnUse"><stop offset="0" stop-color="#53d8ff"></stop><stop offset="1" stop-color="#3840f7"></stop></linearGradient><linearGradient id="linear-gradient-17" x1="771.86" y1="65.06" x2="969.6" y2="65.06" xlink:href="#linear-gradient-16"></linearGradient><linearGradient id="linear-gradient-18" x1="764.5" y1="76.7" x2="962.23" y2="76.7" xlink:href="#linear-gradient-16"></linearGradient><linearGradient id="linear-gradient-19" x1="829.77" y1="100.24" x2="969.6" y2="100.24" xlink:href="#linear-gradient-16"></linearGradient><linearGradient id="linear-gradient-20" x1="646.78" y1="153.94" x2="952.09" y2="153.94" xlink:href="#linear-gradient-16"></linearGradient><linearGradient id="linear-gradient-21" x1="724.11" y1="188.91" x2="726.11" y2="188.91" xlink:href="#linear-gradient-16"></linearGradient><linearGradient id="linear-gradient-22" x1="802.45" y1="230.75" x2="804.45" y2="230.75" xlink:href="#linear-gradient-16"></linearGradient><linearGradient id="linear-gradient-23" x1="859.1" y1="212.69" x2="863.98" y2="212.69" xlink:href="#linear-gradient-16"></linearGradient><linearGradient id="linear-gradient-24" x1="918.76" y1="229.46" x2="920.76" y2="229.46" xlink:href="#linear-gradient-16"></linearGradient><linearGradient id="linear-gradient-25" x1="623.67" y1="176.06" x2="643.08" y2="176.06" xlink:href="#linear-gradient-16"></linearGradient><linearGradient id="linear-gradient-26" x1="616.3" y1="74.5" x2="635.71" y2="74.5" xlink:href="#linear-gradient-16"></linearGradient><linearGradient id="linear-gradient-27" x1="627.97" y1="262.36" x2="964.67" y2="262.36" xlink:href="#linear-gradient-16"></linearGradient><linearGradient id="linear-gradient-28" x1="620.6" y1="254.49" x2="957.3" y2="254.49" xlink:href="#linear-gradient-16"></linearGradient><clipPath id="clip-path" transform="translate(-7.37 -7.87)"><rect class="cls-1" x="420.33" y="84.14" width="377.51" height="333.42"></rect></clipPath><linearGradient id="linear-gradient-29" x1="534.93" y1="628.55" x2="570.75" y2="628.55" xlink:href="#linear-gradient-2"></linearGradient><linearGradient id="linear-gradient-30" x1="624.6" y1="586.3" x2="494.29" y2="688.61" xlink:href="#linear-gradient-16"></linearGradient><linearGradient id="linear-gradient-31" x1="801.51" y1="-6.05" x2="663.43" y2="137.01" xlink:href="#linear-gradient-16"></linearGradient><linearGradient id="linear-gradient-32" x1="731.72" y1="83.04" x2="663.3" y2="161.41" gradientUnits="userSpaceOnUse"><stop offset="0" stop-color="#fdf53f"></stop><stop offset="1" stop-color="#d93c65"></stop></linearGradient><linearGradient id="linear-gradient-33" x1="752.67" y1="61.92" x2="716.59" y2="108.57" xlink:href="#linear-gradient-16"></linearGradient><linearGradient id="linear-gradient-34" x1="486.9" y1="382.8" x2="534.67" y2="382.8" gradientUnits="userSpaceOnUse"><stop offset="0" stop-color="#f9b776"></stop><stop offset="1" stop-color="#f47960"></stop></linearGradient><linearGradient id="linear-gradient-35" x1="544.89" y1="587.77" x2="538.05" y2="647.48" xlink:href="#linear-gradient-34"></linearGradient><linearGradient id="linear-gradient-36" x1="647.75" y1="615.78" x2="517.44" y2="718.09" xlink:href="#linear-gradient-16"></linearGradient><linearGradient id="linear-gradient-37" x1="589.47" y1="629.5" x2="641.03" y2="629.5" xlink:href="#linear-gradient-2"></linearGradient><linearGradient id="linear-gradient-38" x1="600.62" y1="594.16" x2="593.78" y2="653.87" xlink:href="#linear-gradient-34"></linearGradient><linearGradient id="linear-gradient-39" x1="681.92" y1="321.11" x2="463.09" y2="660.67" gradientUnits="userSpaceOnUse"><stop offset="0" stop-color="#7c27dd"></stop><stop offset="1" stop-color="#2b41d9"></stop></linearGradient><linearGradient id="linear-gradient-40" x1="613.15" y1="176.51" x2="409.42" y2="623.59" xlink:href="#linear-gradient"></linearGradient><linearGradient id="linear-gradient-41" x1="710.23" y1="134.3" x2="662.6" y2="201.5" xlink:href="#linear-gradient-34"></linearGradient><linearGradient id="linear-gradient-42" x1="690.06" y1="120" x2="642.43" y2="187.21" xlink:href="#linear-gradient-34"></linearGradient><linearGradient id="linear-gradient-43" x1="560.01" y1="201.46" x2="533.88" y2="314.35" xlink:href="#linear-gradient-34"></linearGradient><linearGradient id="linear-gradient-44" x1="-1223.33" y1="-869.66" x2="-1269.68" y2="-808.34" gradientTransform="translate(2027.35 -115.04) rotate(-46.73)" xlink:href="#linear-gradient-34"></linearGradient><linearGradient id="linear-gradient-45" x1="-1258.73" y1="-854.93" x2="-1203.37" y2="-854.93" gradientTransform="translate(2027.35 -115.04) rotate(-46.73)" xlink:href="#linear-gradient-2"></linearGradient><linearGradient id="linear-gradient-46" x1="-1291.21" y1="-821.1" x2="-1254.04" y2="-859.24" gradientTransform="translate(2027.35 -115.04) rotate(-46.73)" xlink:href="#linear-gradient-34"></linearGradient><linearGradient id="linear-gradient-47" x1="538.01" y1="227.33" x2="483.93" y2="326.68" xlink:href="#linear-gradient"></linearGradient><linearGradient id="linear-gradient-48" x1="559.19" y1="412.29" x2="540.84" y2="444.94" xlink:href="#linear-gradient-2"></linearGradient><linearGradient id="linear-gradient-49" x1="-518.68" y1="552.17" x2="-581.91" y2="652.7" gradientTransform="matrix(-1, 0, 0, 1, 406.94, 0)" xlink:href="#linear-gradient-4"></linearGradient><linearGradient id="linear-gradient-50" x1="-459.72" y1="623.66" x2="-436.36" y2="648.06" gradientTransform="matrix(-1, 0, 0, 1, 406.94, 0)" xlink:href="#linear-gradient-2"></linearGradient><linearGradient id="linear-gradient-51" x1="-495.77" y1="599.46" x2="-471.45" y2="507.85" gradientTransform="matrix(-1, 0, 0, 1, 406.94, 0)" xlink:href="#linear-gradient-16"></linearGradient><linearGradient id="linear-gradient-52" x1="-428.73" y1="684.9" x2="-384.54" y2="717.33" gradientTransform="matrix(-1, 0, 0, 1, 406.94, 0)" xlink:href="#linear-gradient-2"></linearGradient><linearGradient id="linear-gradient-53" x1="-407.61" y1="667.66" x2="-500.58" y2="591.72" gradientTransform="matrix(-1, 0, 0, 1, 406.94, 0)" gradientUnits="userSpaceOnUse"><stop offset="0" stop-color="#fdf53f"></stop><stop offset="0.66" stop-color="#e57a58"></stop><stop offset="1" stop-color="#d93c65"></stop></linearGradient><linearGradient id="linear-gradient-54" x1="-382.4" y1="722.11" x2="-475.36" y2="646.17" xlink:href="#linear-gradient-53"></linearGradient><linearGradient id="linear-gradient-55" x1="-428.09" y1="623.39" x2="-520.52" y2="658.26" gradientTransform="matrix(-1, 0, 0, 1, 406.94, 0)" xlink:href="#linear-gradient-16"></linearGradient><linearGradient id="linear-gradient-56" x1="-500.11" y1="565.05" x2="-530.11" y2="600.72" gradientTransform="matrix(-1, 0, 0, 1, 406.94, 0)" xlink:href="#linear-gradient-34"></linearGradient><linearGradient id="linear-gradient-57" x1="-584.48" y1="498.95" x2="-536.41" y2="667.57" xlink:href="#linear-gradient-53"></linearGradient><linearGradient id="linear-gradient-58" x1="-535.09" y1="597.51" x2="-475.13" y2="515.48" gradientTransform="matrix(-1, 0, 0, 1, 406.94, 0)" xlink:href="#linear-gradient-34"></linearGradient><linearGradient id="linear-gradient-59" x1="-571.77" y1="529.53" x2="-569.56" y2="509.65" gradientTransform="matrix(-1, 0, 0, 1, 406.94, 0)" xlink:href="#linear-gradient-34"></linearGradient><linearGradient id="linear-gradient-60" x1="-226.9" y1="-2189.58" x2="-236.64" y2="-2221.69" gradientTransform="matrix(-0.78, -0.63, -0.63, 0.78, -596.2, 2058.25)" xlink:href="#linear-gradient-34"></linearGradient><linearGradient id="linear-gradient-61" x1="-235.69" y1="-2248.53" x2="-226.64" y2="-2196.91" gradientTransform="matrix(-0.78, -0.63, -0.63, 0.78, -596.2, 2058.25)" xlink:href="#linear-gradient-2"></linearGradient><linearGradient id="linear-gradient-62" x1="-236.99" y1="-2186.53" x2="-246.72" y2="-2218.63" gradientTransform="matrix(-0.78, -0.63, -0.63, 0.78, -596.2, 2058.25)" xlink:href="#linear-gradient-34"></linearGradient><linearGradient id="linear-gradient-63" x1="-490.51" y1="578.95" x2="-444.88" y2="578.95" gradientTransform="matrix(-1, 0, 0, 1, 406.94, 0)" xlink:href="#linear-gradient-2"></linearGradient><linearGradient id="linear-gradient-64" x1="-452.25" y1="559.6" x2="-480.02" y2="587.77" gradientTransform="matrix(-1, 0, 0, 1, 406.94, 0)" xlink:href="#linear-gradient-32"></linearGradient><linearGradient id="linear-gradient-65" x1="-484.97" y1="598.89" x2="-521.45" y2="608.89" gradientTransform="matrix(-1, 0, 0, 1, 406.94, 0)" xlink:href="#linear-gradient-2"></linearGradient><linearGradient id="linear-gradient-66" x1="9038.93" y1="535.86" x2="8849.76" y2="658.49" gradientTransform="matrix(-1, 0, 0, 1, 9219.84, 0)" xlink:href="#linear-gradient-16"></linearGradient><linearGradient id="linear-gradient-67" x1="75.3" y1="532.14" x2="370.28" y2="580.86" xlink:href="#linear-gradient-16"></linearGradient><linearGradient id="linear-gradient-68" x1="4303.85" y1="598.89" x2="4300.73" y2="725.27" gradientTransform="matrix(-1, 0, 0, 1, 4468.91, -7.87)" xlink:href="#linear-gradient-2"></linearGradient><linearGradient id="linear-gradient-69" x1="-5584.32" y1="506.07" x2="-5842.92" y2="668.91" gradientTransform="matrix(-1, 0, 0, 1, -5539.71, 0)" gradientUnits="userSpaceOnUse"><stop offset="0" stop-color="#b37cff"></stop><stop offset="1" stop-color="#f895e7"></stop></linearGradient><linearGradient id="linear-gradient-70" x1="2115.55" y1="609.5" x2="2394.31" y2="609.5" gradientTransform="matrix(-1, 0, 0, 1, 2460.29, 0)" xlink:href="#linear-gradient"></linearGradient><linearGradient id="linear-gradient-71" x1="8072.61" y1="396.35" x2="7989.55" y2="443.76" gradientTransform="translate(-7831.7)" xlink:href="#linear-gradient-34"></linearGradient><linearGradient id="linear-gradient-72" x1="-1303.94" y1="-1733.77" x2="-1310.32" y2="-1636" gradientTransform="matrix(-0.9, -0.44, -0.44, 0.9, -1705.04, 1424.34)" xlink:href="#linear-gradient-4"></linearGradient><linearGradient id="linear-gradient-73" x1="8064.58" y1="408.17" x2="8348.78" y2="230.26" gradientTransform="translate(-7831.7)" xlink:href="#linear-gradient-34"></linearGradient><linearGradient id="linear-gradient-74" x1="-641.75" y1="-2521.87" x2="-648.12" y2="-2424.11" gradientTransform="matrix(-0.79, -0.61, -0.61, 0.79, -1838.79, 2064.55)" xlink:href="#linear-gradient-4"></linearGradient><linearGradient id="linear-gradient-75" x1="110.25" y1="413.08" x2="192.25" y2="221.08" xlink:href="#linear-gradient-32"></linearGradient><linearGradient id="linear-gradient-76" x1="-3987.62" y1="-60.22" x2="-3968.57" y2="-12.46" gradientTransform="matrix(-1, -0.07, -0.07, 1, -3847.68, 6.38)" xlink:href="#linear-gradient-2"></linearGradient><linearGradient id="linear-gradient-77" x1="7977.71" y1="305.81" x2="7781.9" y2="494.69" gradientTransform="translate(-7831.7)" xlink:href="#linear-gradient-4"></linearGradient><linearGradient id="linear-gradient-78" x1="-2173.14" y1="369.02" x2="-2090.39" y2="369.02" gradientTransform="matrix(-1, 0, 0, 1, -2077.7, 0)" xlink:href="#linear-gradient-34"></linearGradient><linearGradient id="linear-gradient-79" x1="-3988.47" y1="38" x2="-3984.32" y2="7.61" gradientTransform="matrix(-1, -0.07, -0.07, 1, -3847.68, 6.38)" xlink:href="#linear-gradient-34"></linearGradient><linearGradient id="linear-gradient-80" x1="-4032.16" y1="-404.22" x2="-3994.08" y2="-472" gradientTransform="matrix(-0.96, -0.26, -0.26, 0.96, -3857.51, -378.99)" xlink:href="#linear-gradient-34"></linearGradient><linearGradient id="linear-gradient-81" x1="-4023.97" y1="-463.25" x2="-4004.93" y2="-415.48" gradientTransform="matrix(-0.96, -0.26, -0.26, 0.96, -3857.51, -378.99)" xlink:href="#linear-gradient-2"></linearGradient><linearGradient id="linear-gradient-82" x1="-4024.06" y1="-399.67" x2="-3985.97" y2="-467.44" gradientTransform="matrix(-0.96, -0.26, -0.26, 0.96, -3857.51, -378.99)" xlink:href="#linear-gradient-34"></linearGradient><linearGradient id="linear-gradient-83" x1="-2229.44" y1="380.49" x2="-2272.72" y2="392.35" gradientTransform="matrix(-1, -0.05, -0.05, 1, -2108.74, -122.1)" xlink:href="#linear-gradient-2"></linearGradient><linearGradient id="linear-gradient-84" x1="-2235.52" y1="340.1" x2="-2266.23" y2="372.56" gradientTransform="matrix(-1, 0, 0, 1, -2077.7, 0)" xlink:href="#linear-gradient-2"></linearGradient><linearGradient id="linear-gradient-85" x1="-2254.08" y1="348.18" x2="-2268.02" y2="369.17" gradientTransform="matrix(-1, 0, 0, 1, -2077.7, 0)" xlink:href="#linear-gradient-16"></linearGradient><linearGradient id="linear-gradient-86" x1="277.68" y1="599.88" x2="213.1" y2="746.03" gradientTransform="matrix(1, 0, 0, 1, 0, 0)" xlink:href="#linear-gradient-53"></linearGradient><linearGradient id="linear-gradient-87" x1="330.98" y1="623.44" x2="266.4" y2="769.58" gradientTransform="matrix(1, 0, 0, 1, 0, 0)" xlink:href="#linear-gradient-53"></linearGradient><linearGradient id="linear-gradient-88" x1="268.84" y1="685.63" x2="280.17" y2="631.25" gradientTransform="matrix(1, 0, 0, 1, 0, 0)" xlink:href="#linear-gradient-53"></linearGradient><linearGradient id="linear-gradient-89" x1="347.95" y1="697.97" x2="393.56" y2="697.97" xlink:href="#linear-gradient-4"></linearGradient><linearGradient id="linear-gradient-90" x1="383.09" y1="610.27" x2="370.63" y2="696.37" xlink:href="#linear-gradient-4"></linearGradient><linearGradient id="linear-gradient-91" x1="350.23" y1="684.22" x2="362.57" y2="684.22" xlink:href="#linear-gradient-34"></linearGradient><linearGradient id="linear-gradient-92" x1="419.49" y1="688.93" x2="456.31" y2="688.93" xlink:href="#linear-gradient-4"></linearGradient><linearGradient id="linear-gradient-93" x1="444.82" y1="619.2" x2="432.35" y2="705.3" xlink:href="#linear-gradient-4"></linearGradient><linearGradient id="linear-gradient-94" x1="281.99" y1="628.54" x2="379.68" y2="628.54" xlink:href="#linear-gradient-2"></linearGradient><linearGradient id="linear-gradient-95" x1="408.68" y1="685.26" x2="423.41" y2="685.26" xlink:href="#linear-gradient-34"></linearGradient><linearGradient id="linear-gradient-96" x1="370.73" y1="587.84" x2="263.48" y2="709.44" xlink:href="#linear-gradient-2"></linearGradient><linearGradient id="linear-gradient-97" x1="326.84" y1="477.65" x2="334.11" y2="459.33" xlink:href="#linear-gradient-34"></linearGradient><linearGradient id="linear-gradient-98" x1="296.8" y1="519.28" x2="376.8" y2="650.61" gradientTransform="matrix(1, 0, 0, 1, 0, 0)" xlink:href="#linear-gradient-53"></linearGradient><linearGradient id="linear-gradient-99" x1="388.9" y1="548.89" x2="422.93" y2="548.89" xlink:href="#linear-gradient-34"></linearGradient><linearGradient id="linear-gradient-100" x1="2253.58" y1="990.07" x2="2217.11" y2="1017.97" gradientTransform="translate(-2014.49 -246.83) rotate(-7.5)" xlink:href="#linear-gradient-34"></linearGradient><linearGradient id="linear-gradient-101" x1="2227.96" y1="968.04" x2="2260.99" y2="1010.56" gradientTransform="translate(-2014.49 -246.83) rotate(-7.5)" xlink:href="#linear-gradient-2"></linearGradient><linearGradient id="linear-gradient-102" x1="2249.06" y1="984.15" x2="2212.59" y2="1012.06" gradientTransform="translate(-2014.49 -246.83) rotate(-7.5)" xlink:href="#linear-gradient-34"></linearGradient><linearGradient id="linear-gradient-103" x1="-496.22" y1="-5187.47" x2="-587.24" y2="-5099.47" gradientTransform="matrix(-1.39, -0.07, -0.07, 1.39, -7948.02, -83.08)" gradientUnits="userSpaceOnUse"><stop offset="0" stop-color="#9cfffb"></stop><stop offset="1" stop-color="#9bfffa"></stop></linearGradient><linearGradient id="linear-gradient-104" x1="-2907.13" y1="-4904.48" x2="-2998.14" y2="-4816.49" gradientTransform="matrix(0.65, -1.23, -1.23, -0.65, 6469.37, -9566.05)" xlink:href="#linear-gradient-103"></linearGradient><linearGradient id="linear-gradient-105" x1="394.61" y1="711.98" x2="401.4" y2="872.29" xlink:href="#linear-gradient-16"></linearGradient><linearGradient id="linear-gradient-106" x1="441.07" y1="710.01" x2="447.87" y2="870.31" xlink:href="#linear-gradient-16"></linearGradient><linearGradient id="linear-gradient-107" x1="420.87" y1="710.87" x2="427.67" y2="871.17" xlink:href="#linear-gradient-16"></linearGradient><linearGradient id="linear-gradient-108" x1="413.07" y1="555.12" x2="400.55" y2="647.75" xlink:href="#linear-gradient-2"></linearGradient></defs><title>طراحی سایت آموزش آنلاین</title><path class="cls-2" d="M144.64,688.72S1.92,610.16,12.15,493.35s134.85-143.71,274-52.81c139.6,91.22,407.76,142.27,536.55,35s129-231.91,129-231.91L1058,339.8s-31.92,286.87-424.76,270.49c0,0-98.8-.79-209.8-65.75-100.62-58.89-179.49-138.15-242.2-116.75-77.32,26.39-67.74,155.69,62.71,219.72Z" transform="translate(-7.37 -7.87)"></path><path class="cls-3" d="M422.74,52.55a32.83,32.83,0,0,0-30.66,32c-2.58,103.88-10.93,462.22-6.95,589.2a25.5,25.5,0,0,0,24.66,24.69c66.54,2.18,257.94,7.7,366.77,3.13a42.93,42.93,0,0,0,41.16-42c2.26-109,7.25-415.73-4.61-556.22a35,35,0,0,0-31.44-31.92C709.21,64.17,516.76,46.45,422.74,52.55Z" transform="translate(-7.37 -7.87)"></path><path class="cls-4" d="M419.11,116.81c-3.63,85.08-15.1,368.12-11.46,472.78a29.62,29.62,0,0,0,27.87,28.57c62.92,3.68,224.29,11.8,316.58,4.41a33.29,33.29,0,0,0,30.55-31.42c4.68-86.8,18.1-350.35,14.62-453.84a32.73,32.73,0,0,0-29.8-31.47c-68.07-6.11-242.88-20.65-321.3-16.37A28.61,28.61,0,0,0,419.11,116.81Z" transform="translate(-7.37 -7.87)"></path><path class="cls-5" d="M602.39,688.09a28.27,28.27,0,1,1,28.28-28.27A28.3,28.3,0,0,1,602.39,688.09Zm0-54.54a26.27,26.27,0,1,0,26.28,26.27A26.3,26.3,0,0,0,602.39,633.55Z" transform="translate(-7.37 -7.87)"></path><path class="cls-6" d="M556.51,70.71h0a6,6,0,0,0,5.67,6c15.71.82,60,3.15,79.76,4.3a6,6,0,0,0,6.23-7.12l-.13-.65a6,6,0,0,0-5.33-4.83c-13.37-1.23-53.73-4.63-80.46-3.67A6,6,0,0,0,556.51,70.71Z" transform="translate(-7.37 -7.87)"></path><path class="cls-7" d="M432.19,137.31c4,51.84,14.63,218.78,17.65,266.44a13.84,13.84,0,0,0,13.66,13l285.42,3.36a13.84,13.84,0,0,0,14-13.11l13.66-258.28a13.85,13.85,0,0,0-13.31-14.57L446.51,122.42A13.85,13.85,0,0,0,432.19,137.31Z" transform="translate(-7.37 -7.87)"></path><path class="cls-8" d="M632.73,536.83a36.61,36.61,0,0,1-36.61,36.6c-20.21,0-40.14-15.32-40.14-35.54s19.93-37.67,40.14-37.67A36.61,36.61,0,0,1,632.73,536.83Z" transform="translate(-7.37 -7.87)"></path><path class="cls-7" d="M589.47,559.34h0a4.85,4.85,0,0,1-4.81-4.34l-3.3-30.83a4.87,4.87,0,0,1,5.21-5.37l3.3.26a4.86,4.86,0,0,1,4.48,4.84v30.58A4.86,4.86,0,0,1,589.47,559.34Z" transform="translate(-7.37 -7.87)"></path><path class="cls-7" d="M599.94,523.44v31.08a4.87,4.87,0,0,0,4.81,4.86h.78a4.85,4.85,0,0,0,4.91-4.68l1.12-31.09a4.85,4.85,0,0,0-4.85-5H604.8A4.86,4.86,0,0,0,599.94,523.44Z" transform="translate(-7.37 -7.87)"></path><path class="cls-9" d="M709.82,536.83a27.89,27.89,0,0,1-27.89,27.89c-15.41,0-30.6-11.68-30.6-27.08s15.19-28.71,30.6-28.71A27.9,27.9,0,0,1,709.82,536.83Z" transform="translate(-7.37 -7.87)"></path><path class="cls-7" d="M670.37,524.81v24.85a3.89,3.89,0,0,0,3.84,3.89h.62a3.87,3.87,0,0,0,3.93-3.74l.9-24.86a3.88,3.88,0,0,0-3.88-4h-1.53A3.88,3.88,0,0,0,670.37,524.81Z" transform="translate(-7.37 -7.87)"></path><path class="cls-7" d="M685.32,524,684,550a2.08,2.08,0,0,0,3.57,1.56l12.58-12.94a2.08,2.08,0,0,0,.09-2.81L689,522.73A2.08,2.08,0,0,0,685.32,524Z" transform="translate(-7.37 -7.87)"></path><path class="cls-10" d="M483.59,536.83a27.89,27.89,0,0,0,27.89,27.89c15.41,0,30.59-11.68,30.59-27.08s-15.18-28.71-30.59-28.71A27.9,27.9,0,0,0,483.59,536.83Z" transform="translate(-7.37 -7.87)"></path><path class="cls-7" d="M523,524.81v24.85a3.89,3.89,0,0,1-3.84,3.89h-.63a3.88,3.88,0,0,1-3.93-3.74L513.75,525a3.88,3.88,0,0,1,3.88-4h1.52A3.89,3.89,0,0,1,523,524.81Z" transform="translate(-7.37 -7.87)"></path><path class="cls-7" d="M508.09,524l1.32,26a2.08,2.08,0,0,1-3.57,1.56l-12.59-12.94a2.08,2.08,0,0,1-.08-2.81l11.26-13.07A2.08,2.08,0,0,1,508.09,524Z" transform="translate(-7.37 -7.87)"></path><path class="cls-7" d="M430.79,465l.32,3.23a5.79,5.79,0,0,0,5.77,5.21h313a5.79,5.79,0,0,0,5.79-5.79h0a5.78,5.78,0,0,0-5.73-5.79l-313.34-3.23A5.79,5.79,0,0,0,430.79,465Z" transform="translate(-7.37 -7.87)"></path><path class="cls-11" d="M631.11,469.74c-.37-3-.81-6.05-1.25-9.11l-193.25-2a5.79,5.79,0,0,0-5.82,6.37l.32,3.23a5.79,5.79,0,0,0,5.77,5.21H631.65C631.45,472.15,631.25,470.9,631.11,469.74Z" transform="translate(-7.37 -7.87)"></path><circle class="cls-12" cx="632.66" cy="466.74" r="10.47" transform="translate(63.24 1008.6) rotate(-80.78)"></circle><path class="cls-13" d="M1043.85,423.63,774.6,399.74a21.25,21.25,0,0,1-19.37-21.05l-1-181.54A21.24,21.24,0,0,1,777,175.85l286.7,20a21.23,21.23,0,0,1,19.68,23.07l-16.46,185.48A21.23,21.23,0,0,1,1043.85,423.63Z" transform="translate(-7.37 -7.87)"></path><path class="cls-14" d="M770,214.73l-1.78,156.74a13.13,13.13,0,0,0,11.83,13.22l258.19,25.65a13.14,13.14,0,0,0,14.38-11.91l14.87-167.61a13.14,13.14,0,0,0-12.37-14.28L783.88,201.76A13.13,13.13,0,0,0,770,214.73Z" transform="translate(-7.37 -7.87)"></path><path class="cls-15" d="M892.42,351.68l146.12,8.57a2.67,2.67,0,0,1,2.49,2.89l-.21,2.35a2.65,2.65,0,0,1-2.85,2.41L892.07,357a2.65,2.65,0,0,1-2.45-2.88h0A2.64,2.64,0,0,1,892.42,351.68Z" transform="translate(-7.37 -7.87)"></path><path class="cls-16" d="M888.53,366.31l-.09,1a2.66,2.66,0,0,0,2.42,2.89l145.73,12.93a2.66,2.66,0,0,0,2.88-2.41l.09-1a2.66,2.66,0,0,0-2.41-2.89L891.42,363.9A2.66,2.66,0,0,0,888.53,366.31Z" transform="translate(-7.37 -7.87)"></path><path class="cls-17" d="M931.6,383.3l0,.44a2.67,2.67,0,0,0,2.42,2.89l101.5,9a2.66,2.66,0,0,0,2.88-2.41l.18-2.06a2.65,2.65,0,0,0-2.45-2.89l-101.64-7.38A2.66,2.66,0,0,0,931.6,383.3Z" transform="translate(-7.37 -7.87)"></path><path class="cls-18" d="M1021.28,358.78l-317.76-6.47a25,25,0,0,1-24.4-23.13L663.42,116.3a25,25,0,0,1,24.94-26.81l337.91.45a25,25,0,0,1,24.94,25.48l-4.46,218.9A25,25,0,0,1,1021.28,358.78Z" transform="translate(-7.37 -7.87)"></path><path class="cls-14" d="M683.34,135.65l10.47,184a15.45,15.45,0,0,0,14.94,14.57l304.91,9.4a15.45,15.45,0,0,0,15.92-15.13l4-197.79A15.45,15.45,0,0,0,1018,115l-319.4,4.38A15.44,15.44,0,0,0,683.34,135.65Z" transform="translate(-7.37 -7.87)"></path><path class="cls-19" d="M837.88,286.5,1010,284.85a3.14,3.14,0,0,1,3.16,3.19l-.06,2.77a3.13,3.13,0,0,1-3.15,3.07l-172-1.13a3.12,3.12,0,0,1-3.1-3.19h0A3.11,3.11,0,0,1,837.88,286.5Z" transform="translate(-7.37 -7.87)"></path><rect class="cls-20" x="919.88" y="217.25" width="7.44" height="178.27" rx="3.13" transform="translate(591.13 1215.69) rotate(-88.84)"></rect><path class="cls-21" d="M886.38,320.46V321a3.13,3.13,0,0,0,3.06,3.19l119.78,2.44a3.13,3.13,0,0,0,3.19-3.07l.05-2.43a3.11,3.11,0,0,0-3.11-3.19l-119.82-.52A3.12,3.12,0,0,0,886.38,320.46Z" transform="translate(-7.37 -7.87)"></path><path class="cls-22" d="M974.38,306.12H621.86A27.69,27.69,0,0,1,594.29,281L572.07,45.31a27.71,27.71,0,0,1,27-30.3L973.86,7.88a27.69,27.69,0,0,1,28.22,27.69V278.42A27.7,27.7,0,0,1,974.38,306.12Z" transform="translate(-7.37 -7.87)"></path><path class="cls-14" d="M594.6,66.31l15.76,203.83A17.14,17.14,0,0,0,627.26,286l338.34,3.54a17.13,17.13,0,0,0,17.31-17.13V52.92A17.13,17.13,0,0,0,965.19,35.8L611.1,47.87A17.13,17.13,0,0,0,594.6,66.31Z" transform="translate(-7.37 -7.87)"></path><path class="cls-23" d="M775.23,64.45,966,58.74a3.47,3.47,0,0,1,3.58,3.47v3.07a3.47,3.47,0,0,1-3.42,3.47l-190.8,2.64a3.48,3.48,0,0,1-3.52-3.47h0A3.47,3.47,0,0,1,775.23,64.45Z" transform="translate(-7.37 -7.87)"></path><rect class="cls-24" x="764.5" y="72.57" width="197.73" height="8.25" rx="3.47"></rect><path class="cls-25" d="M829.77,101v.57a3.47,3.47,0,0,0,3.47,3.47H966.13a3.47,3.47,0,0,0,3.47-3.47v-2.7a3.47,3.47,0,0,0-3.53-3.47L833.19,97.55A3.47,3.47,0,0,0,829.77,101Z" transform="translate(-7.37 -7.87)"></path><path class="cls-26" d="M919,205.75a1.5,1.5,0,0,1-.94-.33L860.8,158.89l-56.46,41.35a1.5,1.5,0,0,1-2-.25l-78.54-94.22c-8.93,7.84-66.79,58.57-74.49,65.3a1.5,1.5,0,1,1-2-2.25c8.35-7.31,75.65-66.32,75.65-66.32a1.51,1.51,0,0,1,1.1-.36,1.49,1.49,0,0,1,1,.53L803.7,197,860,155.78a1.5,1.5,0,0,1,1.83.05L919,202.29l30.62-26.76a1.5,1.5,0,0,1,2,2.26L920,205.38A1.47,1.47,0,0,1,919,205.75Z" transform="translate(-7.37 -7.87)"></path><path class="cls-27" d="M725.11,256.41a1,1,0,0,1-1-1v-3a1,1,0,1,1,2,0v3A1,1,0,0,1,725.11,256.41Zm0-10a1,1,0,0,1-1-1v-3a1,1,0,1,1,2,0v3A1,1,0,0,1,725.11,246.41Zm0-10a1,1,0,0,1-1-1v-3a1,1,0,1,1,2,0v3A1,1,0,0,1,725.11,236.41Zm0-10a1,1,0,0,1-1-1v-3a1,1,0,1,1,2,0v3A1,1,0,0,1,725.11,226.41Zm0-10a1,1,0,0,1-1-1v-3a1,1,0,1,1,2,0v3A1,1,0,0,1,725.11,216.41Zm0-10a1,1,0,0,1-1-1v-3a1,1,0,1,1,2,0v3A1,1,0,0,1,725.11,206.41Zm0-10a1,1,0,0,1-1-1v-3a1,1,0,1,1,2,0v3A1,1,0,0,1,725.11,196.41Zm0-10a1,1,0,0,1-1-1v-3a1,1,0,1,1,2,0v3A1,1,0,0,1,725.11,186.41Zm0-10a1,1,0,0,1-1-1v-3a1,1,0,1,1,2,0v3A1,1,0,0,1,725.11,176.41Zm0-10a1,1,0,0,1-1-1v-3a1,1,0,1,1,2,0v3A1,1,0,0,1,725.11,166.41Zm0-10a1,1,0,0,1-1-1v-3a1,1,0,1,1,2,0v3A1,1,0,0,1,725.11,156.41Zm0-10a1,1,0,0,1-1-1v-3a1,1,0,1,1,2,0v3A1,1,0,0,1,725.11,146.41Zm0-10a1,1,0,0,1-1-1v-3a1,1,0,1,1,2,0v3A1,1,0,0,1,725.11,136.41Zm0-10a1,1,0,0,1-1-1v-3a1,1,0,1,1,2,0v3A1,1,0,0,1,725.11,126.41Z" transform="translate(-7.37 -7.87)"></path><path class="cls-28" d="M803.45,258.25a1,1,0,0,1-1-1v-3a1,1,0,0,1,2,0v3A1,1,0,0,1,803.45,258.25Zm0-10a1,1,0,0,1-1-1v-3a1,1,0,0,1,2,0v3A1,1,0,0,1,803.45,248.25Zm0-10a1,1,0,0,1-1-1v-3a1,1,0,0,1,2,0v3A1,1,0,0,1,803.45,238.25Zm0-10a1,1,0,0,1-1-1v-3a1,1,0,0,1,2,0v3A1,1,0,0,1,803.45,228.25Zm0-10a1,1,0,0,1-1-1v-3a1,1,0,0,1,2,0v3A1,1,0,0,1,803.45,218.25Zm0-10a1,1,0,0,1-1-1v-3a1,1,0,0,1,2,0v3A1,1,0,0,1,803.45,208.25Z" transform="translate(-7.37 -7.87)"></path><path class="cls-29" d="M863,260.17a1,1,0,0,1-1-1l-.09-3a1,1,0,0,1,1-1,1,1,0,0,1,1,1l.09,3a1,1,0,0,1-1,1Zm-.31-10a1,1,0,0,1-1-1l-.09-3a1,1,0,0,1,2-.06l.09,3a1,1,0,0,1-1,1Zm-.31-10a1,1,0,0,1-1-1l-.09-3a1,1,0,0,1,1-1,1,1,0,0,1,1,1l.09,3a1,1,0,0,1-1,1Zm-.31-10a1,1,0,0,1-1-1l-.09-3a1,1,0,0,1,1-1,1,1,0,0,1,1,1l.09,3a1,1,0,0,1-1,1Zm-.31-10a1,1,0,0,1-1-1l-.09-3a1,1,0,0,1,1-1,1,1,0,0,1,1,1l.09,3a1,1,0,0,1-1,1Zm-.31-10a1,1,0,0,1-1-1l-.09-3a1,1,0,0,1,2-.06l.09,3a1,1,0,0,1-1,1Zm-.31-10a1,1,0,0,1-1-1l-.09-3a1,1,0,0,1,1-1,1,1,0,0,1,1,1l.09,3a1,1,0,0,1-1,1Zm-.31-10a1,1,0,0,1-1-1l-.09-3a1,1,0,1,1,2-.06l.09,3a1,1,0,0,1-1,1Zm-.31-10a1,1,0,0,1-1-1l-.09-3a1,1,0,0,1,1-1,1,1,0,0,1,1,1l.09,3a1,1,0,0,1-1,1Zm-.31-10a1,1,0,0,1-1-1l-.09-3a1,1,0,0,1,1-1,1,1,0,0,1,1,1l.09,3a1,1,0,0,1-1,1Z" transform="translate(-7.37 -7.87)"></path><path class="cls-30" d="M919.76,252a1,1,0,0,1-1-1v-3a1,1,0,0,1,2,0v3A1,1,0,0,1,919.76,252Zm0-10a1,1,0,0,1-1-1v-3a1,1,0,0,1,2,0v3A1,1,0,0,1,919.76,242Zm0-10a1,1,0,0,1-1-1v-3a1,1,0,0,1,2,0v3A1,1,0,0,1,919.76,232Zm0-10a1,1,0,0,1-1-1v-3a1,1,0,0,1,2,0v3A1,1,0,0,1,919.76,222Zm0-10a1,1,0,0,1-1-1v-3a1,1,0,0,1,2,0v3A1,1,0,0,1,919.76,212Z" transform="translate(-7.37 -7.87)"></path><path class="cls-31" d="M641.58,272.74a1.5,1.5,0,0,1-1.5-1.37L624,81a1.51,1.51,0,0,1,1.37-1.62A1.48,1.48,0,0,1,627,80.76l16.12,190.36a1.5,1.5,0,0,1-1.37,1.62Z" transform="translate(-7.37 -7.87)"></path><polygon class="cls-32" points="613.53 79.39 618.17 73.89 623.66 78.54 623.3 74.23 617.8 69.59 613.16 75.09 613.53 79.39"></polygon><path class="cls-33" d="M959.74,263.86H629.47a1.5,1.5,0,0,1,0-3H959.74a1.5,1.5,0,0,1,0,3Z" transform="translate(-7.37 -7.87)"></path><polygon class="cls-34" points="946.4 259.57 951.49 254.49 946.4 249.4 950.72 249.4 955.8 254.49 950.72 259.57 946.4 259.57"></polygon><g class="cls-35"><path class="cls-36" d="M570.75,641.3a3.83,3.83,0,0,0-.08-.81c-4-16-24.06-26-24.06-26l-7.93.62c-4.57,14.1-4,22.74-3.25,26.59,0,.11.06.21.08.32A188.17,188.17,0,0,0,570.75,641.3Z" transform="translate(-7.37 -7.87)"></path><path class="cls-37" d="M535.51,642.07a3.46,3.46,0,0,0,2.52,2.54c9.31,2,24.11.38,30.32-.43a2.89,2.89,0,0,0,2.4-2.88A188.17,188.17,0,0,1,535.51,642.07Z" transform="translate(-7.37 -7.87)"></path><path class="cls-38" d="M651.15,125.83l52.27-19,4,8.44-50.23,18.93S650.22,133.61,651.15,125.83Z" transform="translate(-7.37 -7.87)"></path><path class="cls-39" d="M703.42,106.86c-1.54,4.67,4,8.44,4,8.44l9.48-6.71a19.26,19.26,0,0,1-1-3.7Z" transform="translate(-7.37 -7.87)"></path><path class="cls-40" d="M715.92,104.89a19.26,19.26,0,0,0,1,3.7l7-5Z" transform="translate(-7.37 -7.87)"></path><path class="cls-41" d="M504.09,358.18c-4.9,5.23-12.11,9.75-17.19,12.57,7.58,9.37,17.84,18.76,31.43,27.94l3.88,8.73,12.46-14.93S512.32,381.37,504.09,358.18Z" transform="translate(-7.37 -7.87)"></path><path class="cls-42" d="M535.49,603.34l3.36,16.18a2.64,2.64,0,0,0,2.26,2.18,22.46,22.46,0,0,0,5.2-.09,3.32,3.32,0,0,0,2.64-3.9l-2.34-14.37Z" transform="translate(-7.37 -7.87)"></path><path class="cls-43" d="M605.11,641.91c-8.76-.25-13.29-1.28-15.64-2.24,0,.87,0,1.76,0,2.68a1.74,1.74,0,0,0,1.65,1.76l48.11-.31a2.2,2.2,0,0,0,1.77-3.2C634.72,641.12,618.66,642.29,605.11,641.91Z" transform="translate(-7.37 -7.87)"></path><path class="cls-44" d="M641,640.6a2.47,2.47,0,0,0-.19-.36c-4.25-5.94-15.07-17.76-36.45-22.89L594.13,617s-4.57,7.94-4.66,22.65c2.35,1,6.88,2,15.64,2.24C618.66,642.29,634.72,641.12,641,640.6Z" transform="translate(-7.37 -7.87)"></path><path class="cls-45" d="M592.22,601.48c.12.76,1.52,12.38,2.07,16.89a2.24,2.24,0,0,0,1.88,2,23.38,23.38,0,0,0,7.05-.11,3.05,3.05,0,0,0,2.3-3V599Z" transform="translate(-7.37 -7.87)"></path><path class="cls-46" d="M584,389.38s24.75,94,24.3,212.37a4.58,4.58,0,0,1-3.63,4.46,53.57,53.57,0,0,1-11.47,1.33,4.25,4.25,0,0,1-4.05-3.55c-3.47-20.35-23.38-135-34.73-153.57,0,0-7.46,102.08-5.08,155a2.5,2.5,0,0,1-2.21,2.61,42,42,0,0,1-9.21,0,3.37,3.37,0,0,1-3-2.85c-2.47-17.22-16.7-119.72-16.09-193.55,0-4.17,11-22.27,11-22.27Z" transform="translate(-7.37 -7.87)"></path><path class="cls-47" d="M664.9,186.89C654,207.1,636,227.73,606.68,233.26c-27.08,5.11-75.71,11.41-95.26,13.88a23.9,23.9,0,0,0-15.12,8.12c-15.37,17.77-49.07,66.45-9.4,115.49,5.08-2.82,12.29-7.34,17.19-12.57-4.38-12.37-4.74-28.19,4.46-47.58a44.83,44.83,0,0,0,1.17,4.56c12.68,40.17,13.36,73.6,13.33,81.3a2.53,2.53,0,0,0,1.59,2.38c16.69,6.68,48.81,2.7,59.6,1.1a3.64,3.64,0,0,0,3-4.12c-5.29-38.34,21.87-101.41,29-117.21a10.45,10.45,0,0,1,5.21-5.21c41-18.56,58.86-47.13,66.09-72.86C681.36,192.14,671.66,188.47,664.9,186.89Z" transform="translate(-7.37 -7.87)"></path><path class="cls-48" d="M687.61,200.54c8.77-31.19,1.95-58.22,1.95-58.22h-9.35a151.1,151.1,0,0,1-15.31,44.57C671.66,188.47,681.36,192.14,687.61,200.54Z" transform="translate(-7.37 -7.87)"></path><path class="cls-49" d="M683.5,147.29s-14.23-18.43-9.6-28,20.47-8.67,20.47-8.67l2.22,7.53a9.41,9.41,0,0,1-.22,6l-8.76,23.15Z" transform="translate(-7.37 -7.87)"></path><path class="cls-50" d="M540.27,210.25l-3.22,32.86s18.49,5.56,31.93-3.92l-9.45-29.87Z" transform="translate(-7.37 -7.87)"></path><path class="cls-51" d="M561.72,172.8c.44.42,18.77,36.41,18.77,36.41l-20.77,10-22.45-31.53S554.27,165.79,561.72,172.8Z" transform="translate(-7.37 -7.87)"></path><path class="cls-52" d="M546.46,188.58a3.35,3.35,0,0,0,.25,2.91l10.37,17.27a3,3,0,0,0,.56.71c1.24,1.15,5.46,4.49,8.72-.06,2.78-3.87,5.39-7.4,8.19-8.85A3.31,3.31,0,0,1,579,202a123.7,123.7,0,0,1,7.09,16.83,3.29,3.29,0,0,1-1.92,4c-4.21,1.71-12.52,4.79-19.9,5.81a3.33,3.33,0,0,1-3.13-1.34C558,223,549,210.87,546,207.83c-2.84-2.83-8.07-1.76-10.43-1.08a3.37,3.37,0,0,1-2.65-.35c-2.39-1.44-6.57-5-2.75-11.11a3.32,3.32,0,0,0-1-4.51c-2.68-1.76-5.58-5.05-2.81-10.4s7.79-5.89,11.19-5.48a3.42,3.42,0,0,0,3.61-2,2.2,2.2,0,0,1,1.71-1.34,3.22,3.22,0,0,0,2.6-3.78c-.59-3.06-.14-7,4.74-9.73,9-4.93,16.82,3.11,18.82,9.89s-8,11.57-14.33,12.37C550,180.88,547.49,185.94,546.46,188.58Z" transform="translate(-7.37 -7.87)"></path><path class="cls-53" d="M549.87,214.17s-4-11.66-9.09-11.23-9.11,5.51-2.79,11.22C545.86,221.27,549.87,214.17,549.87,214.17Z" transform="translate(-7.37 -7.87)"></path><path class="cls-54" d="M506.86,307.6c-6.72-18.41-4.28-40.63-4.26-40.86l1.86.21c0,.22-2.42,22,4.16,40Z" transform="translate(-7.37 -7.87)"></path><path class="cls-55" d="M553.5,448a.94.94,0,0,1-.9-.7c-2.05-7.91-17.42-16.61-17.57-16.7a.93.93,0,0,1-.36-1.27.92.92,0,0,1,1.27-.35c.66.37,16.22,9.17,18.47,17.85a.93.93,0,0,1-.67,1.14Z" transform="translate(-7.37 -7.87)"></path></g><path class="cls-56" d="M1046.05,512.09s23.88,13.23,25.85,35.61.17,115.29-47.71,138.16S913,703.45,888.69,701,851,682,848,670.62s-7.85-53.63,17.66-67.27,52.32-34.54,79.1-54.88S1017.42,494.91,1046.05,512.09Z" transform="translate(-7.37 -7.87)"></path><path class="cls-57" d="M873.17,611.06s6.44.35,7.23,13.6c0,0-14.94,13.4-35.12,16.58-1.52.24,2.11-10.34,2.66-11.77C850.54,622.65,858.73,618.25,873.17,611.06Z" transform="translate(-7.37 -7.87)"></path><path class="cls-58" d="M945.74,595.48h-13.6S890.4,549.38,863,544.73c0,0-19,24.33,1,69.77a6.62,6.62,0,0,0,9.49,3.13,5.38,5.38,0,0,0,2.17-2.59l-1.61-38.8s35.6,31.14,41.79,37.15S953.53,615.73,945.74,595.48Z" transform="translate(-7.37 -7.87)"></path><path class="cls-59" d="M814.28,692.25a51,51,0,0,1,27.88-12.2l4.43,2.71a47.89,47.89,0,0,1-8,8.57c-4.74,2.76-12.07,6.49-18.15,7.3C814.55,699.42,813.68,695.85,814.28,692.25Z" transform="translate(-7.37 -7.87)"></path><path class="cls-60" d="M847.94,629.47c3.51,1.13,5.06,6.11,14,2.82a78.85,78.85,0,0,0,18.32-9.65c.08.64.14,1.31.18,2,0,0-15.75,15-35.94,18.18a2,2,0,0,1-2.17-2.71A50.84,50.84,0,0,1,847.94,629.47Z" transform="translate(-7.37 -7.87)"></path><path class="cls-61" d="M810,696.51a48.29,48.29,0,0,1,4.3-4.26c-.6,3.6.27,7.17,6.17,6.38,6.08-.81,13.41-4.54,18.15-7.3-6,5.07-15,10.46-26.42,10.14A3,3,0,0,1,810,696.51Z" transform="translate(-7.37 -7.87)"></path><path class="cls-62" d="M945.24,605.32l-63.68.69s-36.36,30.08-43,76c0,0-1.09,3.37,5.48,3.95a126.16,126.16,0,0,0,36.32-39.75C898,615,932.8,629.06,932.8,629.06c11.44-8.25,27.61-9.93,39.79-12.68Z" transform="translate(-7.37 -7.87)"></path><path class="cls-63" d="M943.74,554s-6.86,34.35-40.45,48l-11.94-1.41-2.82,4.49,28,.9A76.65,76.65,0,0,0,953.2,570.6C953.62,569.75,960.61,555.32,943.74,554Z" transform="translate(-7.37 -7.87)"></path><path class="cls-64" d="M940.06,604.75s7.8-21.19,9.47-41.77a88.64,88.64,0,0,0-9.27-7,2.57,2.57,0,0,1-1-3.34c2.62-5.43,18.47-26.75,19.65-27,6.46-1.61,32.92-14.2,51.56,11.3,8,10.94-1.59,44.62-37.88,79.5l-7.48,1.43Z" transform="translate(-7.37 -7.87)"></path><path class="cls-65" d="M970.1,567.62S948.44,593.26,920.75,597c0,0-7.15-6.52-12.48-4.19s-12.61,12.61-12.61,12.61h35.55s33.62-1.19,50.42-21.57C980.27,576.72,976.23,572.46,970.1,567.62Z" transform="translate(-7.37 -7.87)"></path><path class="cls-66" d="M982.73,507.59l4.74,15.8a1.74,1.74,0,0,1-.67,1.94A17.67,17.67,0,0,1,970.37,527a2.58,2.58,0,0,1-1.65-2.21L967.59,511Z" transform="translate(-7.37 -7.87)"></path><path class="cls-67" d="M962.77,481.23s-8.53,14.18-6.82,22.06S969.56,516,980.57,509l6.91-21.6Z" transform="translate(-7.37 -7.87)"></path><path class="cls-68" d="M979.58,498.58a.8.8,0,0,1-.4-1.16,21.55,21.55,0,0,0,2.62-6.31s1.82-1.29-4.91-2.57-16.77-3.3-19.12-8.87,2.41-19.57,11.45-8.89a.82.82,0,0,0,1.29-.06c1.31-1.88,4.81-5.83,10-3.77,4.87,1.92,5.57,5.39,5.59,7.16a.8.8,0,0,0,1,.78c2.39-.57,8.17-1.23,11.14,4.58,2.46,4.79,1.14,7.63-.12,9a.81.81,0,0,0,.41,1.32c1.61.42,3.72,1.67,3.69,5.39-.05,5.15-5.81,5-7.46,4.81a.8.8,0,0,0-.71.29c-1.33,1.61-7.34,8.5-14.15,9.61a.82.82,0,0,1-.9-1l2.56-8.74a.81.81,0,0,0-.49-1Z" transform="translate(-7.37 -7.87)"></path><path class="cls-69" d="M978.45,499.86s7.2-5.44,7.94-1.17-6.41,6.53-10.07,5.09Z" transform="translate(-7.37 -7.87)"></path><path class="cls-70" d="M897.45,607.42l-16-53.24a5.45,5.45,0,0,0-4.84-3.87l-21.55-1.47A3.05,3.05,0,0,0,852,552.9l17.84,50.84a4.48,4.48,0,0,0,3.77,3l21.23,2.36Z" transform="translate(-7.37 -7.87)"></path><path class="cls-71" d="M868,572.22c1.19,2.41,3.25,3.82,4.59,3.15s1.48-3.16.28-5.56-3.25-3.82-4.59-3.15S866.81,569.82,868,572.22Z" transform="translate(-7.37 -7.87)"></path><path class="cls-72" d="M894.84,609.07h.1l45.22-2.28a2,2,0,0,0,1.93-2.13,2,2,0,0,0-2.13-1.92L894.74,605a2,2,0,0,0,.1,4.05Z" transform="translate(-7.37 -7.87)"></path><path class="cls-73" d="M949.53,563.48a.51.51,0,0,1-.5-.5c0-9.58,3.65-22.24,3.69-22.36a.49.49,0,0,1,.62-.34.5.5,0,0,1,.34.62c0,.12-3.68,12.65-3.65,22.07a.51.51,0,0,1-.5.51Z" transform="translate(-7.37 -7.87)"></path><path class="cls-73" d="M970.1,568.12a.51.51,0,0,1-.31-.11.5.5,0,0,1-.08-.7c.1-.13,9.91-12.6,13.26-21.1a.5.5,0,0,1,.93.37c-3.41,8.63-13.31,21.22-13.41,21.35A.51.51,0,0,1,970.1,568.12Z" transform="translate(-7.37 -7.87)"></path><path class="cls-73" d="M984,587.38l-1.88-2.66a.5.5,0,0,1,.82-.57l1.41,2c13.8-6.14,22.35-22.66,22.43-22.83a.51.51,0,0,1,.68-.21.49.49,0,0,1,.21.67c-.08.17-8.94,17.3-23.3,23.45Z" transform="translate(-7.37 -7.87)"></path><path class="cls-74" d="M117.18,615.16l-2.49-1.75a1.7,1.7,0,1,1,2-2.79h0l0,0,2.43,1.72,0,0a1.7,1.7,0,0,1-1.95,2.78Z" transform="translate(-7.37 -7.87)"></path><path class="cls-74" d="M109,609.14l-2.35-1.91a1.73,1.73,0,1,1,2.18-2.69h0l0,0,2.3,1.88,0,0a1.72,1.72,0,0,1-2.18,2.67Z" transform="translate(-7.37 -7.87)"></path><path class="cls-74" d="M101.34,602.57l-2.22-2.07a1.76,1.76,0,1,1,2.4-2.57h0l0,0,2.15,2,0,0a1.75,1.75,0,0,1,.07,2.47A1.73,1.73,0,0,1,101.34,602.57Z" transform="translate(-7.37 -7.87)"></path><path class="cls-74" d="M94.11,595.48,92,593.26a1.78,1.78,0,0,1,2.61-2.43h0l0,0,2,2.18,0,0a1.77,1.77,0,1,1-2.6,2.41Z" transform="translate(-7.37 -7.87)"></path><path class="cls-74" d="M87.39,587.91l-1.91-2.36a1.81,1.81,0,1,1,2.81-2.27h0l0,0,1.85,2.31,0,0a1.8,1.8,0,0,1-2.8,2.25Z" transform="translate(-7.37 -7.87)"></path><path class="cls-74" d="M81.21,579.89l-1.74-2.49a1.83,1.83,0,1,1,3-2.1h0l0,0,1.68,2.44,0,0a1.83,1.83,0,0,1-3,2.08Z" transform="translate(-7.37 -7.87)"></path><path class="cls-74" d="M75.61,571.46l-1.56-2.61a1.85,1.85,0,1,1,3.18-1.91h0l0,0,1.5,2.55,0,0a1.85,1.85,0,0,1-3.17,1.9Z" transform="translate(-7.37 -7.87)"></path><path class="cls-74" d="M70.62,562.64l-1.37-2.72a1.88,1.88,0,1,1,3.36-1.69h0l0,0L74,560.92l0,0a1.87,1.87,0,0,1-3.35,1.68Z" transform="translate(-7.37 -7.87)"></path><path class="cls-74" d="M66.29,553.47l-1.17-2.81a1.91,1.91,0,1,1,3.52-1.46h0v0L69.78,552l0,0a1.9,1.9,0,0,1-3.51,1.44Z" transform="translate(-7.37 -7.87)"></path><path class="cls-74" d="M62.65,544l-.94-2.89a1.93,1.93,0,1,1,3.67-1.2h0v0l.91,2.81v0A1.92,1.92,0,0,1,62.65,544Z" transform="translate(-7.37 -7.87)"></path><path class="cls-74" d="M59.77,534.27l-.72-3A2,2,0,0,1,60.5,529a1.94,1.94,0,0,1,2.35,1.44h0v.05l.68,2.87v0a2,2,0,0,1-1.45,2.34A1.94,1.94,0,0,1,59.77,534.27Z" transform="translate(-7.37 -7.87)"></path><path class="cls-74" d="M57.67,524.33l-.47-3a2,2,0,1,1,3.91-.61h0v0l.44,2.91v.05a2,2,0,0,1-3.9.6Z" transform="translate(-7.37 -7.87)"></path><path class="cls-74" d="M56.4,514.25l-.21-3a2,2,0,1,1,4-.28h0V511l.19,2.94V514a2,2,0,1,1-4,.27Z" transform="translate(-7.37 -7.87)"></path><path class="cls-74" d="M56,504.08l.06-3.05a2,2,0,0,1,4.06.08h0v.06l-.08,2.94v.05a2,2,0,0,1-2.07,2A2,2,0,0,1,56,504.08Z" transform="translate(-7.37 -7.87)"></path><path class="cls-74" d="M56.54,493.92l.34-3a2.05,2.05,0,1,1,4.08.45h0v.05l-.33,2.93v.05a2,2,0,0,1-4.07-.45Z" transform="translate(-7.37 -7.87)"></path><path class="cls-74" d="M58,483.84l.59-3a2.08,2.08,0,0,1,4.08.81h0v0L62,484.6v0a2.07,2.07,0,0,1-4.06-.81Z" transform="translate(-7.37 -7.87)"></path><path class="cls-74" d="M60.23,473.92l.85-2.93a2.1,2.1,0,1,1,4,1.16h0v0L64.28,475l0,0a2.1,2.1,0,0,1-4-1.17Z" transform="translate(-7.37 -7.87)"></path><path class="cls-74" d="M63.34,464.23l1.09-2.85a2.13,2.13,0,0,1,4,1.52h0l0,0-1.07,2.75,0,.05a2.12,2.12,0,0,1-4-1.53Z" transform="translate(-7.37 -7.87)"></path><path class="cls-74" d="M67.26,454.83l1.34-2.75A2.15,2.15,0,0,1,72.47,454h0l0,0-1.29,2.65,0,.05a2.15,2.15,0,0,1-3.86-1.89Z" transform="translate(-7.37 -7.87)"></path><path class="cls-74" d="M72,445.81l1.56-2.63a2.18,2.18,0,0,1,3.75,2.23h0l0,.05L75.73,448l0,.05A2.17,2.17,0,0,1,72,445.81Z" transform="translate(-7.37 -7.87)"></path><path class="cls-74" d="M77.47,437.22l1.8-2.48a2.2,2.2,0,0,1,3.56,2.58h0l0,.05-1.74,2.38,0,.05a2.2,2.2,0,0,1-3.55-2.59Z" transform="translate(-7.37 -7.87)"></path><path class="cls-74" d="M83.72,429.15l2-2.3a2.23,2.23,0,0,1,3.36,2.93h0l0,0-2,2.2,0,0a2.22,2.22,0,0,1-3.33-2.94Z" transform="translate(-7.37 -7.87)"></path><path class="cls-74" d="M90.69,421.7l2.23-2.1a2.25,2.25,0,1,1,3.1,3.27h0l-.05.05-2.15,2,0,0a2.25,2.25,0,0,1-3.08-3.27Z" transform="translate(-7.37 -7.87)"></path><path class="cls-74" d="M98.37,415l2.43-1.87a2.28,2.28,0,1,1,2.78,3.61h0l0,0-2.33,1.78-.06,0a2.27,2.27,0,0,1-2.76-3.6Z" transform="translate(-7.37 -7.87)"></path><path class="cls-74" d="M106.69,409l2.62-1.61a2.3,2.3,0,0,1,2.42,3.92h0l-.07,0-2.49,1.53-.06,0a2.3,2.3,0,0,1-2.41-3.91Z" transform="translate(-7.37 -7.87)"></path><path class="cls-74" d="M115.59,404l2.76-1.34a2.33,2.33,0,1,1,2,4.19h0l-.06,0-2.64,1.27-.07,0a2.32,2.32,0,0,1-2-4.18Z" transform="translate(-7.37 -7.87)"></path><path class="cls-74" d="M124.93,399.8l2.87-1.07a2.35,2.35,0,1,1,1.64,4.41h0l-.06,0-2.75,1-.06,0a2.35,2.35,0,0,1-3-1.4A2.32,2.32,0,0,1,124.93,399.8Z" transform="translate(-7.37 -7.87)"></path><path class="cls-74" d="M134.6,396.53l3-.81a2.38,2.38,0,1,1,1.26,4.59h0l-.06,0-2.83.76-.06,0a2.37,2.37,0,0,1-1.25-4.58Z" transform="translate(-7.37 -7.87)"></path><path class="cls-74" d="M144.51,394.13l3-.57a2.39,2.39,0,1,1,.88,4.7h-.06l-2.89.54h-.06a2.39,2.39,0,0,1-.87-4.69Z" transform="translate(-7.37 -7.87)"></path><path class="cls-74" d="M154.56,392.52l3-.33a2.4,2.4,0,1,1,.52,4.78h-.06l-2.93.31h0a2.4,2.4,0,0,1-.52-4.78Z" transform="translate(-7.37 -7.87)"></path><path class="cls-74" d="M164.7,391.67l3.05-.11a2.41,2.41,0,1,1,.18,4.82h-.05l-2.95.1h-.05a2.41,2.41,0,0,1-.18-4.82Z" transform="translate(-7.37 -7.87)"></path><path class="cls-74" d="M174.86,391.52l3,.09a2.43,2.43,0,1,1-.13,4.85h-.05l-3-.09h0a2.43,2.43,0,0,1,.14-4.85Z" transform="translate(-7.37 -7.87)"></path><path class="cls-74" d="M185,392l3,.28a2.44,2.44,0,0,1-.44,4.86h-.05l-2.94-.27h0A2.44,2.44,0,1,1,185,392Z" transform="translate(-7.37 -7.87)"></path><path class="cls-74" d="M195.08,393.16l3,.45a2.45,2.45,0,0,1-.73,4.85h0l-2.93-.44h0a2.45,2.45,0,0,1,.73-4.84Z" transform="translate(-7.37 -7.87)"></path><path class="cls-74" d="M205.07,394.85l3,.6a2.46,2.46,0,1,1-1,4.83h0l-2.9-.6h0a2.46,2.46,0,0,1,1-4.82Z" transform="translate(-7.37 -7.87)"></path><path class="cls-74" d="M215,397l2.94.74a2.48,2.48,0,0,1-1.21,4.8h0l-2.88-.73h0A2.47,2.47,0,0,1,215,397Z" transform="translate(-7.37 -7.87)"></path><path class="cls-74" d="M224.71,399.64l2.9.86a2.49,2.49,0,0,1-1.41,4.77h0l-2.84-.85h0a2.48,2.48,0,1,1,1.42-4.76Z" transform="translate(-7.37 -7.87)"></path><path class="cls-74" d="M234.34,402.63l2.87,1a2.5,2.5,0,1,1-1.59,4.74h0l-2.81-.95h0a2.5,2.5,0,1,1,1.59-4.73Z" transform="translate(-7.37 -7.87)"></path><path class="cls-74" d="M243.86,405.93l2.83,1.05a2.51,2.51,0,1,1-1.74,4.71h0l-2.79-1h0a2.51,2.51,0,0,1,1.74-4.71Z" transform="translate(-7.37 -7.87)"></path><path class="cls-74" d="M253.27,409.5l2.81,1.11a2.53,2.53,0,0,1-1.87,4.7h0l-2.77-1.11h0a2.52,2.52,0,0,1,1.87-4.68Z" transform="translate(-7.37 -7.87)"></path><path class="cls-74" d="M262.59,413.28l2.78,1.17a2.54,2.54,0,1,1-2,4.68h0L260.64,418h0a2.53,2.53,0,0,1,2-4.67Z" transform="translate(-7.37 -7.87)"></path><path class="cls-74" d="M271.83,417.22l2.76,1.21a2.55,2.55,0,0,1-2,4.67h0l-2.74-1.2h0a2.55,2.55,0,0,1,2.05-4.66Z" transform="translate(-7.37 -7.87)"></path><path class="cls-74" d="M281,421.28l2.74,1.23a2.56,2.56,0,1,1-2.1,4.68h0l-2.73-1.24h0a2.56,2.56,0,0,1,2.11-4.66Z" transform="translate(-7.37 -7.87)"></path><path class="cls-74" d="M290.13,425.42l2.73,1.26a2.58,2.58,0,0,1-2.16,4.68h0L288,430.09h0a2.57,2.57,0,0,1,2.16-4.67Z" transform="translate(-7.37 -7.87)"></path><path class="cls-74" d="M299.21,429.65l2.72,1.28a2.59,2.59,0,1,1-2.21,4.68h0l-2.7-1.28h0a2.58,2.58,0,0,1,2.21-4.67Z" transform="translate(-7.37 -7.87)"></path><path class="cls-74" d="M308.26,433.94l2.71,1.3a2.6,2.6,0,0,1-2.25,4.69h0l-2.7-1.3h0a2.6,2.6,0,0,1,2.25-4.68Z" transform="translate(-7.37 -7.87)"></path><path class="cls-74" d="M317.28,438.3l2.7,1.32a2.61,2.61,0,1,1-2.29,4.69h0L315,443a2.61,2.61,0,1,1,2.29-4.68Z" transform="translate(-7.37 -7.87)"></path><path class="cls-74" d="M326.27,442.71,329,444a2.63,2.63,0,0,1-2.33,4.71h0l-2.68-1.34a2.62,2.62,0,0,1,2.33-4.69Z" transform="translate(-7.37 -7.87)"></path><path class="cls-74" d="M335.23,447.17l2.69,1.34a2.64,2.64,0,0,1-2.36,4.72h0l-2.68-1.35a2.63,2.63,0,0,1,2.36-4.7Z" transform="translate(-7.37 -7.87)"></path><path class="cls-74" d="M344.18,451.66l2.68,1.36a2.65,2.65,0,0,1-2.39,4.72h0l-2.67-1.36a2.65,2.65,0,0,1,2.39-4.72Z" transform="translate(-7.37 -7.87)"></path><path class="cls-74" d="M353.1,456.18l2.68,1.37a2.66,2.66,0,0,1-2.41,4.74h0l-2.67-1.36a2.66,2.66,0,0,1,2.41-4.74Z" transform="translate(-7.37 -7.87)"></path><path class="cls-74" d="M362,460.73l2.67,1.36a2.67,2.67,0,1,1-2.43,4.76h0l-2.67-1.37a2.67,2.67,0,1,1,2.43-4.75Z" transform="translate(-7.37 -7.87)"></path><path class="cls-74" d="M370.93,465.28l2.67,1.37a2.68,2.68,0,0,1-2.44,4.78h0l-2.67-1.37a2.68,2.68,0,0,1,2.45-4.77Z" transform="translate(-7.37 -7.87)"></path><path class="cls-74" d="M379.83,469.84l2.67,1.37a2.69,2.69,0,1,1-2.45,4.8h0l-2.67-1.37a2.69,2.69,0,0,1,2.46-4.79Z" transform="translate(-7.37 -7.87)"></path><path class="cls-74" d="M388.74,474.39l2.67,1.36a2.71,2.71,0,0,1-2.46,4.83h0l-2.67-1.38a2.7,2.7,0,1,1,2.47-4.81Z" transform="translate(-7.37 -7.87)"></path><path class="cls-74" d="M397.65,478.93l2.67,1.36a2.72,2.72,0,1,1-2.46,4.85h0l-2.67-1.37a2.72,2.72,0,0,1,2.47-4.84Z" transform="translate(-7.37 -7.87)"></path><path class="cls-74" d="M406.56,483.45l2.68,1.35a2.73,2.73,0,0,1-2.46,4.88h0l-2.68-1.35a2.73,2.73,0,0,1,2.46-4.87Z" transform="translate(-7.37 -7.87)"></path><path class="cls-74" d="M415.49,487.93l2.68,1.34a2.75,2.75,0,0,1-2.44,4.92h0L413,492.83a2.74,2.74,0,0,1,2.46-4.9Z" transform="translate(-7.37 -7.87)"></path><path class="cls-74" d="M424.43,492.38l2.69,1.33a2.76,2.76,0,0,1-2.43,5h0L422,497.31a2.75,2.75,0,0,1,2.44-4.93Z" transform="translate(-7.37 -7.87)"></path><path class="cls-74" d="M433.4,496.78l2.69,1.31h0a2.77,2.77,0,1,1-2.43,5h0l-2.7-1.32a2.77,2.77,0,0,1,2.43-5Z" transform="translate(-7.37 -7.87)"></path><path class="cls-74" d="M442.39,501.13l2.7,1.29h0a2.78,2.78,0,1,1-2.4,5h0L440,506.13a2.78,2.78,0,1,1,2.41-5Z" transform="translate(-7.37 -7.87)"></path><path class="cls-74" d="M451.4,505.41l2.71,1.27h0a2.78,2.78,0,1,1-2.37,5h0L449,510.45a2.78,2.78,0,1,1,2.37-5Z" transform="translate(-7.37 -7.87)"></path><path class="cls-74" d="M460.44,509.63l2.72,1.25h0a2.79,2.79,0,1,1-2.33,5.07h0l-2.73-1.26a2.79,2.79,0,1,1,2.33-5.06Z" transform="translate(-7.37 -7.87)"></path><path class="cls-74" d="M469.51,513.77l2.73,1.22h0a2.79,2.79,0,1,1-2.28,5.1h0l-2.75-1.24a2.79,2.79,0,0,1,2.29-5.09Z" transform="translate(-7.37 -7.87)"></path><path class="cls-74" d="M478.63,517.81l2.74,1.2h0a2.79,2.79,0,1,1-2.23,5.12h0l-2.76-1.2a2.79,2.79,0,1,1,2.23-5.12Z" transform="translate(-7.37 -7.87)"></path><path class="cls-74" d="M487.79,521.76l2.75,1.16h0a2.79,2.79,0,1,1-2.17,5.15h0l-2.77-1.17a2.79,2.79,0,0,1,2.17-5.15Z" transform="translate(-7.37 -7.87)"></path><path class="cls-74" d="M497,525.59l2.77,1.13h0a2.79,2.79,0,1,1-2.1,5.18h0l-2.79-1.14a2.79,2.79,0,1,1,2.11-5.17Z" transform="translate(-7.37 -7.87)"></path><path class="cls-74" d="M506.23,529.3l2.78,1.1h0a2.8,2.8,0,1,1-2,5.21h0l-2.8-1.1a2.8,2.8,0,0,1,2-5.21Z" transform="translate(-7.37 -7.87)"></path><path class="cls-74" d="M515.52,532.89l2.8,1.05h0a2.8,2.8,0,0,1-2,5.24h0l-2.82-1.06a2.8,2.8,0,0,1,2-5.24Z" transform="translate(-7.37 -7.87)"></path><path class="cls-74" d="M524.86,536.35l2.81,1h0a2.8,2.8,0,0,1-1.89,5.27h0l-2.84-1a2.8,2.8,0,0,1,1.89-5.27Z" transform="translate(-7.37 -7.87)"></path><path class="cls-74" d="M534.25,539.66l2.83,1h0a2.8,2.8,0,1,1-1.81,5.3h0l-2.85-1a2.8,2.8,0,1,1,1.81-5.29Z" transform="translate(-7.37 -7.87)"></path><path class="cls-74" d="M543.69,542.82l2.84.92h0a2.8,2.8,0,0,1-1.72,5.33h0l-2.87-.93a2.8,2.8,0,1,1,1.72-5.33Z" transform="translate(-7.37 -7.87)"></path><path class="cls-74" d="M553.18,545.82l2.86.86h0a2.8,2.8,0,1,1-1.63,5.36h0l-2.88-.88a2.8,2.8,0,1,1,1.63-5.36Z" transform="translate(-7.37 -7.87)"></path><path class="cls-74" d="M562.72,548.64l2.87.82h0a2.8,2.8,0,0,1-1.52,5.4h0l-2.91-.83a2.8,2.8,0,1,1,1.53-5.39Z" transform="translate(-7.37 -7.87)"></path><path class="cls-74" d="M572.31,551.29l2.88.76h0a2.81,2.81,0,1,1-1.43,5.43h0l-2.92-.77a2.8,2.8,0,1,1,1.43-5.42Z" transform="translate(-7.37 -7.87)"></path><path class="cls-74" d="M581.94,553.75l2.9.69h0a2.8,2.8,0,1,1-1.32,5.45h0l-2.93-.7a2.81,2.81,0,0,1,1.31-5.46Z" transform="translate(-7.37 -7.87)"></path><path class="cls-74" d="M591.62,556l2.91.64h0a2.81,2.81,0,1,1-1.19,5.49h0l-2.94-.65A2.8,2.8,0,1,1,591.6,556Z" transform="translate(-7.37 -7.87)"></path><path class="cls-74" d="M601.35,558l2.92.57h0a2.81,2.81,0,0,1-1.07,5.51h0l-3-.58a2.81,2.81,0,1,1,1.08-5.51Z" transform="translate(-7.37 -7.87)"></path><path class="cls-74" d="M611.12,559.87l2.94.5h0a2.81,2.81,0,0,1-1,5.54h0l-3-.51a2.81,2.81,0,0,1,1-5.54Z" transform="translate(-7.37 -7.87)"></path><path class="cls-74" d="M620.92,561.46l3,.42h0a2.81,2.81,0,0,1-.81,5.56h0l-3-.44a2.81,2.81,0,1,1,.81-5.56Z" transform="translate(-7.37 -7.87)"></path><path class="cls-74" d="M630.76,562.8l3,.35h0a2.81,2.81,0,1,1-.67,5.58h0l-3-.36a2.81,2.81,0,0,1,.68-5.58Z" transform="translate(-7.37 -7.87)"></path><path class="cls-74" d="M640.62,563.89l3,.28h0a2.81,2.81,0,0,1-.52,5.6h0l-3-.28a2.81,2.81,0,1,1,.53-5.6Z" transform="translate(-7.37 -7.87)"></path><path class="cls-74" d="M650.5,564.72l3,.19h0a2.81,2.81,0,1,1-.37,5.61h0l-3-.2a2.81,2.81,0,1,1,.37-5.61Z" transform="translate(-7.37 -7.87)"></path><path class="cls-74" d="M660.4,565.27l3,.11h0a2.82,2.82,0,0,1-.21,5.63h0l-3-.11a2.82,2.82,0,0,1,.21-5.63Z" transform="translate(-7.37 -7.87)"></path><path class="cls-74" d="M670.31,565.54l3,0h0a2.82,2.82,0,1,1,0,5.63h0l-3,0a2.82,2.82,0,0,1,0-5.64Z" transform="translate(-7.37 -7.87)"></path><path class="cls-74" d="M680.23,565.52l3-.06h0a2.82,2.82,0,1,1,.12,5.63h0l-3,.07a2.82,2.82,0,0,1-.12-5.64Z" transform="translate(-7.37 -7.87)"></path><path class="cls-74" d="M690.13,565.19l3-.17h0a2.82,2.82,0,1,1,.32,5.63h0l-3,.17a2.82,2.82,0,0,1-.31-5.63Z" transform="translate(-7.37 -7.87)"></path><path class="cls-74" d="M700,564.52l3-.26h0a2.82,2.82,0,1,1,.5,5.62h0l-3,.26a2.82,2.82,0,1,1-.5-5.61Z" transform="translate(-7.37 -7.87)"></path><path class="cls-74" d="M709.86,563.52l2.95-.36h0a2.83,2.83,0,0,1,.69,5.61h0l-3,.37a2.82,2.82,0,1,1-.69-5.6Z" transform="translate(-7.37 -7.87)"></path><path class="cls-74" d="M719.68,562.19l2.93-.47h0a2.82,2.82,0,0,1,.88,5.58h0l-3,.47a2.82,2.82,0,1,1-.88-5.58Z" transform="translate(-7.37 -7.87)"></path><path class="cls-74" d="M729.44,560.52l2.92-.56h0a2.83,2.83,0,1,1,1.08,5.55h0l-3,.57a2.82,2.82,0,1,1-1.08-5.54Z" transform="translate(-7.37 -7.87)"></path><path class="cls-74" d="M739.14,558.52l2.89-.67h0a2.83,2.83,0,1,1,1.27,5.51h0l-3,.67a2.82,2.82,0,0,1-1.26-5.5Z" transform="translate(-7.37 -7.87)"></path><path class="cls-74" d="M748.76,556.18l2.86-.77h0a2.83,2.83,0,0,1,1.47,5.47h0l-2.93.78a2.83,2.83,0,1,1-1.46-5.46Z" transform="translate(-7.37 -7.87)"></path><path class="cls-74" d="M758.28,553.5l2.84-.87h0a2.83,2.83,0,1,1,1.66,5.41h0l-2.9.89a2.83,2.83,0,0,1-1.66-5.41Z" transform="translate(-7.37 -7.87)"></path><path class="cls-74" d="M767.71,550.47l2.8-1h0a2.83,2.83,0,0,1,1.86,5.35h0l-2.87,1a2.83,2.83,0,1,1-1.85-5.35Z" transform="translate(-7.37 -7.87)"></path><path class="cls-74" d="M777,547.1l2.76-1.08h0a2.83,2.83,0,0,1,2.06,5.28h0l-2.82,1.1a2.83,2.83,0,1,1-2.06-5.27Z" transform="translate(-7.37 -7.87)"></path><path class="cls-74" d="M786.17,543.38l2.72-1.18,0,0a2.83,2.83,0,0,1,2.26,5.2h0l-2.78,1.21a2.83,2.83,0,0,1-2.26-5.19Z" transform="translate(-7.37 -7.87)"></path><path class="cls-74" d="M795.18,539.31l2.67-1.3h0a2.83,2.83,0,1,1,2.47,5.1h0l-2.73,1.32a2.83,2.83,0,1,1-2.47-5.1Z" transform="translate(-7.37 -7.87)"></path><path class="cls-74" d="M804,534.87l2.62-1.4h0a2.84,2.84,0,0,1,2.68,5h0l-2.68,1.43a2.84,2.84,0,0,1-2.68-5Z" transform="translate(-7.37 -7.87)"></path><path class="cls-74" d="M812.65,530.08l2.56-1.51,0,0a2.84,2.84,0,1,1,2.89,4.89h0L815.51,535a2.84,2.84,0,1,1-2.89-4.88Z" transform="translate(-7.37 -7.87)"></path><path class="cls-74" d="M821.09,524.92l2.48-1.61,0,0a2.84,2.84,0,1,1,3.1,4.75h0l-2.55,1.66a2.84,2.84,0,0,1-3.09-4.76Z" transform="translate(-7.37 -7.87)"></path><path class="cls-74" d="M829.27,519.41l2.41-1.73,0,0a2.84,2.84,0,0,1,3.31,4.61h0L832.55,524a2.84,2.84,0,1,1-3.31-4.61Z" transform="translate(-7.37 -7.87)"></path><path class="cls-74" d="M837.2,513.53l2.32-1.84,0,0a2.84,2.84,0,1,1,3.52,4.46h0L840.68,518a2.84,2.84,0,0,1-3.51-4.46Z" transform="translate(-7.37 -7.87)"></path><path class="cls-74" d="M844.84,507.29l2.23-1.94,0,0a2.84,2.84,0,0,1,3.73,4.29h0l-2.3,2a2.84,2.84,0,0,1-3.72-4.28Z" transform="translate(-7.37 -7.87)"></path><path class="cls-74" d="M852.17,500.69l2.13-2,0,0a2.84,2.84,0,1,1,3.94,4.1h0l-2.2,2.11a2.84,2.84,0,0,1-3.93-4.11Z" transform="translate(-7.37 -7.87)"></path><path class="cls-74" d="M859.16,493.75l2-2.15,0,0a2.84,2.84,0,0,1,4.14,3.9h0l-2.09,2.21a2.84,2.84,0,1,1-4.14-3.9Z" transform="translate(-7.37 -7.87)"></path><path class="cls-74" d="M865.8,486.46l1.92-2.24,0,0a2.85,2.85,0,0,1,4.34,3.69h0l-2,2.32a2.84,2.84,0,0,1-4.33-3.69Z" transform="translate(-7.37 -7.87)"></path><path class="cls-74" d="M872.05,478.86l1.77-2.33,0,0a2.83,2.83,0,0,1,4.52,3.42l-1.84,2.45a2.84,2.84,0,1,1-4.54-3.42v0Z" transform="translate(-7.37 -7.87)"></path><path class="cls-74" d="M877.82,470.92l1.65-2.46,0,0a2.81,2.81,0,0,1,4.67,3.13l-1.68,2.53a2.82,2.82,0,0,1-4.69-3.13h0Z" transform="translate(-7.37 -7.87)"></path><path class="cls-74" d="M883.19,462.64l1.54-2.52,0,0a2.79,2.79,0,0,1,4.77,2.89l-1.57,2.6a2.79,2.79,0,0,1-4.79-2.88h0Z" transform="translate(-7.37 -7.87)"></path><path class="cls-74" d="M888.19,454.13l1.42-2.59,0,0a2.76,2.76,0,0,1,4.85,2.65L893,456.82a2.77,2.77,0,0,1-4.88-2.64h0Z" transform="translate(-7.37 -7.87)"></path><path class="cls-74" d="M892.82,445.42l1.31-2.66,0,0a2.69,2.69,0,0,1,4.85,2.35l-1.31,2.75a2.72,2.72,0,0,1-4.9-2.34v0Z" transform="translate(-7.37 -7.87)"></path><path class="cls-74" d="M897,436.5l1.17-2.72v0a2.64,2.64,0,0,1,4.86,2l-1.16,2.81a2.65,2.65,0,1,1-4.91-2v0Z" transform="translate(-7.37 -7.87)"></path><path class="cls-74" d="M900.69,427.37l1-2.77v-.05a2.57,2.57,0,0,1,4.85,1.68l-1,2.89a2.59,2.59,0,1,1-4.9-1.66v0Z" transform="translate(-7.37 -7.87)"></path><path class="cls-74" d="M903.76,418.05l.78-2.83v-.06a2.46,2.46,0,0,1,4.76,1.25l-.75,3a2.49,2.49,0,1,1-4.83-1.22v0Z" transform="translate(-7.37 -7.87)"></path><path class="cls-74" d="M906.05,408.55l.5-2.88v-.08a2.36,2.36,0,0,1,4.65.76l-.46,3a2.39,2.39,0,0,1-4.72-.72v0Z" transform="translate(-7.37 -7.87)"></path><path class="cls-74" d="M907.33,398.91l.16-2.9v-.1a2.23,2.23,0,0,1,4.46.18l-.08,3.09a2.28,2.28,0,1,1-4.55-.11v-.16Z" transform="translate(-7.37 -7.87)"></path><path class="cls-74" d="M907.34,389.26l-.3-2.87v-.12a2.07,2.07,0,0,1,1.85-2.29,2.1,2.1,0,0,1,2.29,1.79l.41,3.09a2.13,2.13,0,0,1-4.22.57v-.17Z" transform="translate(-7.37 -7.87)"></path><path class="cls-74" d="M905.7,379.81l-.85-2.74,0-.13a1.92,1.92,0,0,1,3.64-1.2l1,2.95a2,2,0,0,1-3.73,1.32l0-.07Z" transform="translate(-7.37 -7.87)"></path><path class="cls-74" d="M902.16,371l-1.46-2.48-.06-.11a1.72,1.72,0,0,1,2.92-1.8l1.7,2.62a1.78,1.78,0,1,1-3,1.93l0-.05Z" transform="translate(-7.37 -7.87)"></path><path class="cls-74" d="M896.62,363.13l-2-2.08-.07-.08a1.52,1.52,0,0,1,2.15-2.15l2.24,2.14a1.58,1.58,0,1,1-2.19,2.29l0,0Z" transform="translate(-7.37 -7.87)"></path><path class="cls-74" d="M889.42,356.68,887,355l-.06,0a1.28,1.28,0,0,1,1.4-2.15l2.62,1.61a1.37,1.37,0,0,1-1.43,2.33l-.06,0Z" transform="translate(-7.37 -7.87)"></path><path class="cls-75" d="M104.45,570.54h210.2V538.3H104.45C109,538.31,109,570.54,104.45,570.54Z" transform="translate(-7.37 -7.87)"></path><path class="cls-76" d="M314.65,562.48V547.72a9.34,9.34,0,0,0-9.27-9.41h-200c-4,0-7.29-2.51-7.29-5.6h0a2,2,0,0,1,2.21-1.7H318.89c5,0,13,6,13,13.5v20.6c0,7-7.73,12.72-12.46,12.72h-218c-1.85,0-3.36-1.15-3.36-2.58h0c0-2.6,2.75-4.71,6.14-4.71H306.71A8,8,0,0,0,314.65,562.48Z" transform="translate(-7.37 -7.87)"></path><path class="cls-12" d="M308.82,545.92H111.73a1,1,0,0,1,0-2H308.82a1,1,0,1,1,0,2Z" transform="translate(-7.37 -7.87)"></path><path class="cls-12" d="M308.82,550.71H111.73a1,1,0,0,1,0-2H308.82a1,1,0,0,1,0,2Z" transform="translate(-7.37 -7.87)"></path><path class="cls-12" d="M308.82,555.49H111.73a1,1,0,0,1,0-2H308.82a1,1,0,0,1,0,2Z" transform="translate(-7.37 -7.87)"></path><path class="cls-12" d="M308.82,560.28H111.73a1,1,0,0,1,0-2H308.82a1,1,0,0,1,0,2Z" transform="translate(-7.37 -7.87)"></path><path class="cls-12" d="M308.82,565.06H111.73a1,1,0,0,1,0-2H308.82a1,1,0,0,1,0,2Z" transform="translate(-7.37 -7.87)"></path><rect class="cls-77" y="632.39" width="333.72" height="63.05" rx="20.09"></rect><rect class="cls-78" x="37.72" y="639.64" width="39.2" height="48.55" rx="7.24"></rect><path class="cls-79" d="M335.38,581.34V592.2a5.89,5.89,0,0,1-3,4.85l-1.87,1.21c-1.53,1-1.21,2.82.61,3.48h0c1.21.44,1.43,1.65.43,2.31l-2.35,1.57a2.18,2.18,0,0,0,0,3.84l1.69,1.13a2,2,0,0,1-.09,3.63L329,615.34a1.91,1.91,0,0,0-.48,3.14l1,1a3.44,3.44,0,0,1,1.1,2.44v17.15H84.55V580.31Z" transform="translate(-7.37 -7.87)"></path><path class="cls-80" d="M93.07,593.91H326.75c.51,0,.93-.31.93-.69s-.42-.68-.93-.68H93.07c-.51,0-.92.3-.92.68S92.56,593.91,93.07,593.91Z" transform="translate(-7.37 -7.87)"></path><path class="cls-80" d="M93.07,604.14H321.22c.51,0,.93-.31.93-.69s-.42-.69-.93-.69H93.07c-.51,0-.92.31-.92.69S92.56,604.14,93.07,604.14Z" transform="translate(-7.37 -7.87)"></path><path class="cls-80" d="M93.07,611.66H318.39c.51,0,.92-.3.92-.68s-.41-.69-.92-.69H93.07c-.51,0-.92.31-.92.69S92.56,611.66,93.07,611.66Z" transform="translate(-7.37 -7.87)"></path><path class="cls-81" d="M80.09,576.56H340.76c2,0,3.76,1.09,3.95,2.56.22,1.69-1.56,3.12-3.78,3.12H99.21c-4.24,0-7.91,2.21-8.79,5.31-4,13.88-3.66,28.34.07,43.25.86,3.46,4.92,6,9.63,6H336c2,0,3.76,1.08,3.95,2.56.21,1.69-1.56,3.11-3.79,3.11H81.81c-6.08,0-11.31-3.24-12.4-7.7-4.39-18.09-4.77-35.46,0-51.89,1.07-3.68,5.48-6.29,10.53-6.29Z" transform="translate(-7.37 -7.87)"></path><path class="cls-82" d="M228.28,473.64c-.09,0-52.78-92.3-59.9-101a5.53,5.53,0,0,0-4.93-2l-14.7,1.75L131.47,409.8,160.25,393c-2.84,19.69,34.13,49,46.81,59.64a2.92,2.92,0,0,1,.23,4.25l-5.06,5.3A58.15,58.15,0,0,0,231,478.56Z" transform="translate(-7.37 -7.87)"></path><path class="cls-83" d="M205.16,459.37a7.46,7.46,0,0,0-4.33,3.92,3.29,3.29,0,0,0,1.24,3.79c5.32,3.81,22.87,16.12,31,18.53a.92.92,0,0,0,1.14-1.08c-.41-1.88-1.76-5.64-6.09-11.14l.39.79a1.12,1.12,0,0,1-1.56,1.48C221.51,472.6,210.47,465.91,205.16,459.37Z" transform="translate(-7.37 -7.87)"></path><path class="cls-84" d="M207.76,496.28c-.08,0-8-19.1-8.08-19.16-7.25-44.12-24.93-81.91-30.14-91.86a5.52,5.52,0,0,0-4.43-2.93l-14.75-1.26-24.48,33.1,31.57-10.59c-6.77,18.71,23.51,54.86,33.77,67.89a2.92,2.92,0,0,1-.63,4.2l-6,4.16a58.13,58.13,0,0,0,24.82,21.81Z" transform="translate(-7.37 -7.87)"></path><path class="cls-85" d="M188,477.62a7.47,7.47,0,0,0-5,3,3.3,3.3,0,0,0,.45,4C187.86,489.36,202.55,505,210,509a.92.92,0,0,0,1.34-.83c0-1.93-.58-5.88-3.71-12.14l.23.85A1.13,1.13,0,0,1,206,498C201.33,493.9,191.88,485.11,188,477.62Z" transform="translate(-7.37 -7.87)"></path><path class="cls-86" d="M81.29,374.1S67.94,394,66.84,403s3.69,12.18,17.67,13.34c41.57,3.44,62.07-9,62.07-9,2.84-18.14,4.87-22.75,28.62-32.61,0,0-30,2.38-36.09,0S81.29,374.1,81.29,374.1Z" transform="translate(-7.37 -7.87)"></path><path class="cls-87" d="M120.79,257s-6.63,2.65-8.06,6.15c-1.16,2.8-8.26,2.66-9.37,8.26a6.48,6.48,0,0,1-5.83,5.3c-7.31.59-18.72,3.54-21.41,16-2.05,9.48,2.58,13.47,7.61,15.1a7.27,7.27,0,0,1,4.9,8.78c-1,3.59-.2,7.89,5.88,11.67,13.61,8.49,29.56-15.66,29.56-15.66l6.06-43.73Z" transform="translate(-7.37 -7.87)"></path><path class="cls-88" d="M117.39,371.47s15.54-14.8,23.19-24.61a20.8,20.8,0,0,0,3.53-18.72c-3.5-11.77-9.71-24-10.27-25.86-.87-2.9-18.3-2.78-18.3-2.78s-34.3,22.26-47.77,60l15.13,4.71s9-15,17.8-24.57c0,0-15.31,20.22-15.85,28.5Z" transform="translate(-7.37 -7.87)"></path><path class="cls-89" d="M147,377.31,135.32,364.6l-13.49,3.63s-15.72,2.44-24.72,0l-9-2.43-20.34-6.34-3.2,9a5.45,5.45,0,0,0,2,6.25,36.11,36.11,0,0,0,5.14,3.2c2.67,1.17,61.7.37,61.7.37Z" transform="translate(-7.37 -7.87)"></path><path class="cls-90" d="M124.24,277.45l-8.44,22.88c.78,4.75,12.75,4.88,14.6,2a2.67,2.67,0,0,0,.37-1l3.79-17.89a3.24,3.24,0,0,0-1.65-3.54l-4.66-2.48C126.46,276.54,124.86,275.51,124.24,277.45Z" transform="translate(-7.37 -7.87)"></path><path class="cls-91" d="M136.44,256.42s5.88,4.63,7.77,15.47-2.7,14.34-7.11,13.79-10.71-2.38-15.72-10.42S128.72,250.73,136.44,256.42Z" transform="translate(-7.37 -7.87)"></path><path class="cls-92" d="M127.29,271.37S126.13,256,138.62,259.2l2.37,2.85s6.71-6.54.22-12.31-16.09-5.1-22.05,4.13-8.36,15.84-4.37,22.13,7.67,1.4,7.67,1.4-1.65-5.31.19-7.4,3.75,1.56,3.75,1.56Z" transform="translate(-7.37 -7.87)"></path><path class="cls-93" d="M125.47,272.55s-.56-7.92-4.73-6,.92,7.44,3,9.33Z" transform="translate(-7.37 -7.87)"></path><path class="cls-94" d="M108.34,382.34h.13l53.72-.06a2.41,2.41,0,0,0,0-4.81l-53.72.06a2.41,2.41,0,0,0-.12,4.81Z" transform="translate(-7.37 -7.87)"></path><path class="cls-95" d="M210.48,333.56H165.74a8.52,8.52,0,0,0-7.71,4.89l-20.68,43.86H193a5.19,5.19,0,0,0,4.82-3.28l16-40.58A3.58,3.58,0,0,0,210.48,333.56Z" transform="translate(-7.37 -7.87)"></path><path class="cls-96" d="M179,356.05c-1,3-.25,5.94,1.6,6.53s4.14-1.36,5.11-4.37.26-5.94-1.6-6.54S179.93,353,179,356.05Z" transform="translate(-7.37 -7.87)"></path><path class="cls-97" d="M255.18,611.79c-1.87,2.77-9.31,65.48-10.48,88.65a2.75,2.75,0,0,0,2.75,2.87h0a2.75,2.75,0,0,0,2.71-2.32l13.61-87.21Z" transform="translate(-7.37 -7.87)"></path><path class="cls-98" d="M315,611.79c1.87,2.77,9.31,65.48,10.47,88.65a2.74,2.74,0,0,1-2.74,2.87h0A2.75,2.75,0,0,1,320,701l-13.61-87.21Z" transform="translate(-7.37 -7.87)"></path><path class="cls-99" d="M243.92,606.89v.69c0,4.92,4.19,8.95,9.5,9l62.9,1.07c5.23.09,9.59-3.69,9.84-8.53l0-.63c.26-5-4-9.31-9.48-9.4L253.79,598C248.4,597.9,244,601.9,243.92,606.89Z" transform="translate(-7.37 -7.87)"></path><path class="cls-100" d="M366.29,698.16c-11.18,0-16.13-1-18.34-1.83a4.24,4.24,0,0,0,4.13,3.28h39.56a1.92,1.92,0,0,0,1.85-2.43C389,697.54,379.41,698.16,366.29,698.16Z" transform="translate(-7.37 -7.87)"></path><path class="cls-101" d="M393.49,697.18a1.88,1.88,0,0,0-.32-.67c-3-3.85-9.07-9.89-17.3-9.77-12.06.17-16.27,1.47-25.64.07L348,694.14a4.19,4.19,0,0,0-.07,2.19c2.21.87,7.16,1.83,18.34,1.83C379.41,698.16,389,697.54,393.49,697.18Z" transform="translate(-7.37 -7.87)"></path><path class="cls-102" d="M352.94,678.91l-2.71,9.23s6,2.74,11.3.54l1-8Z" transform="translate(-7.37 -7.87)"></path><path class="cls-103" d="M434.93,692.35c-8.72,7-13.17,9.35-15.44,10.06a4.22,4.22,0,0,0,5.27,0l30.83-24.77a1.92,1.92,0,0,0-.07-3.05C452.23,677.65,445.15,684.13,434.93,692.35Z" transform="translate(-7.37 -7.87)"></path><path class="cls-104" d="M455.52,674.55a1.81,1.81,0,0,0-.67-.32c-4.75-1.1-13.23-2-19.58,3.25-9.29,7.69-11.76,11.34-19.94,16.12l2.85,7.07a4.19,4.19,0,0,0,1.31,1.74c2.27-.71,6.72-3.06,15.44-10.06C445.15,684.13,452.23,677.65,455.52,674.55Z" transform="translate(-7.37 -7.87)"></path><path class="cls-105" d="M294.88,573.73s66.94,5.47,80.67,11.93-11.2,97.08-11.2,97.08-3.74,1.79-12.06-.79c0,0,8.53-66.87,2.18-81.36L282,588.73Z" transform="translate(-7.37 -7.87)"></path><path class="cls-106" d="M408.68,680.87c.62.57,6.65,12.73,6.65,12.73s6.71-1.45,8.08-5.7l-6-11Z" transform="translate(-7.37 -7.87)"></path><path class="cls-107" d="M254.56,573.17a33.93,33.93,0,0,0-2.09,12.23,18.36,18.36,0,0,0,17.51,18l79.14,3.6a3.81,3.81,0,0,1,3.5,2.86c1.86,7.19,10.95,29.28,55.38,73.36a3.6,3.6,0,0,0,4.44.48l6.32-4a1.45,1.45,0,0,0,.48-2L373.16,599a17.82,17.82,0,0,0-10.83-8l-67.45-17.25Z" transform="translate(-7.37 -7.87)"></path><path class="cls-108" d="M332.55,450.26s-8.48,15-17.12,22.25l17.86,10s4-15.87,13.23-20.51Z" transform="translate(-7.37 -7.87)"></path><path class="cls-109" d="M253.12,573.73s21.37,5.21,41.76,0c0,0,28.53-38.35,39.57-48.79,0,0,17.61,27.78,56.8,31.72l2.19-4.89s-31.2-14.38-40.81-36.48-13.46-31.53-22.2-37.29c-5.44-3.59-8.7-6.05-10.39-7.39a2.8,2.8,0,0,0-3.2-.2C307.57,476.06,263.93,506,253.12,573.73Z" transform="translate(-7.37 -7.87)"></path><path class="cls-110" d="M333.29,525.27a2.26,2.26,0,0,1-1.78-.88,86,86,0,0,1-10.87-19.28,2.24,2.24,0,1,1,4.19-1.61,82.64,82.64,0,0,0,10.24,18.16,2.23,2.23,0,0,1-.41,3.14A2.21,2.21,0,0,1,333.29,525.27Z" transform="translate(-7.37 -7.87)"></path><path class="cls-111" d="M388.9,549.22l4.41-1.17L406.7,545a6.18,6.18,0,0,1,4.71.79L422.93,553l-31.81-.06Z" transform="translate(-7.37 -7.87)"></path><path class="cls-112" d="M346,427.79s8.24,13.69,9.67,21.26,3.72,12.3-4.89,15-16.63-.72-21.65-7.78c0,0-7.85-10.88-7.06-15.86S346,427.79,346,427.79Z" transform="translate(-7.37 -7.87)"></path><path class="cls-113" d="M331.43,450.41l1.12-.15s-5.84-8.81-2-11,19.37-7.55,22.08-13.68c2.6-5.9-1.3-12.58-6-14a.6.6,0,0,0-.72.38l-.28.74a.61.61,0,0,1-1.12,0h0a.6.6,0,0,0-1.09,0c-.83,1.84-3.33,5-10.81,7.4-10.61,3.44-17.23,8.79-16.41,16.33a.61.61,0,0,1-.87.61c-.86-.38-2.18-.44-3.71,1.23-2.65,2.91-.57,9.26,6.68,13.76a.59.59,0,0,1,.1,1c-1.08.93-2.61,3,2.3,4.85s7.76,1.25,8.77.84a.59.59,0,0,0,.37-.67l-1.29-6.61a.62.62,0,0,1,.52-.72Z" transform="translate(-7.37 -7.87)"></path><path class="cls-114" d="M331.89,451.77s-3.63-9-7.45-5.82,3.53,10.12,6.92,10Z" transform="translate(-7.37 -7.87)"></path><path class="cls-115" d="M376.61,559.23h.16l67.94-.07a3,3,0,1,0,0-6.07l-67.95.07a3,3,0,0,0-.15,6.07Z" transform="translate(-7.37 -7.87)"></path><path class="cls-116" d="M471,492.68l-.07.14-28.59,61.64a3,3,0,1,0,5.51,2.56l28.59-61.64a3,3,0,0,0-5.44-2.7Z" transform="translate(-7.37 -7.87)"></path><path class="cls-117" d="M406.86,562.64c-.29,1.23-28.64,107.56-35.83,134.51a4.87,4.87,0,0,0,4.66,6.16h0a4.85,4.85,0,0,0,4.69-3.7L411.85,572Z" transform="translate(-7.37 -7.87)"></path><path class="cls-118" d="M422.39,562.64c.3,1.23,28.65,107.56,35.84,134.51a4.88,4.88,0,0,1-4.67,6.16h0a4.85,4.85,0,0,1-4.69-3.7L417.4,572Z" transform="translate(-7.37 -7.87)"></path><path class="cls-119" d="M423.57,559.16H405.91v14.18a3.67,3.67,0,0,0,3.65,3.69H412v31.85a2.78,2.78,0,0,0,2.76,2.79h0a2.77,2.77,0,0,0,2.76-2.79V577h1.23a4.87,4.87,0,0,0,4.84-4.9Z" transform="translate(-7.37 -7.87)"></path><path class="cls-120" d="M362.5,555.75h98.59a3,3,0,0,1,2.93,2.3l1.37,5.39a3.05,3.05,0,0,1-2.94,3.83l-101.17-.59a3,3,0,0,1-2.91-3.81l1.2-4.81A3,3,0,0,1,362.5,555.75Z" transform="translate(-7.37 -7.87)"></path></svg>